<?xml version="1.0" encoding="UTF-8" standalone="no"?> <!-- Created with Inkscape (http://www.inkscape.org/) --> <svg xmlns:inkscape="http://www.inkscape.org/namespaces/inkscape" xmlns:sodipodi="http://sodipodi.sourceforge.net/DTD/sodipodi-0.dtd" xmlns="http://www.w3.org/2000/svg" xmlns:svg="http://www.w3.org/2000/svg" width="7mm" height="7mm" viewBox="0 0 7 7" version="1.1" id="svg1875" inkscape:version="1.1.1 (3bf5ae0d25, 2021-09-20)" sodipodi:docname="nie_prasowac.svg"><defs id="defs1872"></defs><g inkscape:label="Warstwa 1" inkscape:groupmode="layer" id="layer1" transform="translate(-16.887924,-216.08273)"><g id="g3194" transform="translate(7.6232036,7.2674773)" style="fill:#002330;fill-opacity:1"><g id="g150" transform="matrix(0.35277777,0,0,-0.35277777,7.8283983,207.97107)" style="fill:#002330;fill-opacity:1"><g aria-label="P" transform="scale(1,-1)" id="text5232" style="font-weight:bold;font-size:6.93185px;line-height:1.25;font-family:'Kumbh Sans';-inkscape-font-specification:'Kumbh Sans Bold';stroke-width:0.173296"><g id="g24514" transform="matrix(0.93083991,0,0,0.93083991,18.095809,14.993195)"><g id="g792" transform="matrix(1,0,0,-1,-11.67004,-0.11312)" style="fill:#002330;fill-opacity:1"><path d="M 0,0 H 13.471 L 12.49,3.829 H 5.121 C 2.337,3.829 0.67,1.293 0,0 M 14.179,-1.099 H -0.856 c -0.18,0 -0.348,0.088 -0.452,0.236 -0.102,0.148 -0.126,0.337 -0.063,0.505 0.08,0.216 2.017,5.285 6.492,5.285 h 7.088 l -0.98,3.829 H 4.111 c -0.303,0 -0.548,0.245 -0.548,0.549 0,0.304 0.245,0.549 0.548,0.549 h 7.544 c 0.251,0 0.47,-0.169 0.533,-0.413 l 2.522,-9.854 c 0.042,-0.164 0.007,-0.339 -0.098,-0.473 -0.104,-0.135 -0.264,-0.213 -0.433,-0.213" style="fill:#002330;fill-opacity:1;fill-rule:nonzero;stroke:none" id="path794"></path></g><g id="g796" transform="matrix(1,0,0,-1,3.70976,3.93618)" style="fill:#002330;fill-opacity:1"><path d="M 0,0 C -0.151,0 -0.301,0.042 -0.429,0.121 L -8.118,4.812 -15.807,0.121 C -15.936,0.042 -16.084,0 -16.235,0 c -0.29,0 -0.554,0.147 -0.704,0.396 -0.115,0.187 -0.15,0.408 -0.098,0.622 0.052,0.213 0.184,0.395 0.372,0.509 l 6.966,4.25 -6.966,4.25 c -0.188,0.114 -0.32,0.295 -0.372,0.509 -0.052,0.214 -0.017,0.435 0.098,0.623 0.148,0.244 0.418,0.396 0.704,0.396 0.151,0 0.299,-0.043 0.428,-0.122 l 7.689,-4.691 7.689,4.691 c 0.129,0.079 0.278,0.122 0.429,0.122 0.29,0 0.553,-0.149 0.704,-0.396 C 0.818,10.971 0.854,10.75 0.802,10.536 0.749,10.322 0.617,10.141 0.429,10.027 L -6.536,5.777 0.43,1.527 C 0.617,1.413 0.749,1.231 0.802,1.018 0.854,0.804 0.818,0.583 0.704,0.395 0.553,0.147 0.29,0 0,0" style="fill:#002330;fill-opacity:1;fill-rule:nonzero;stroke:none" id="path798"></path></g><g id="g800" transform="matrix(1,0,0,-1,3.70976,-7.89292)"><path d="m 0,0 c -0.202,0 -0.4,-0.056 -0.573,-0.163 l -7.545,-4.603 -7.546,4.604 C -15.835,-0.056 -16.033,0 -16.235,0 c -0.382,0 -0.742,-0.202 -0.94,-0.528 -0.151,-0.249 -0.198,-0.544 -0.129,-0.829 0.07,-0.286 0.245,-0.527 0.496,-0.68 l 6.581,-4.015 -6.581,-4.015 c -0.251,-0.153 -0.426,-0.394 -0.496,-0.68 -0.069,-0.285 -0.022,-0.581 0.13,-0.831 0.201,-0.329 0.552,-0.526 0.939,-0.526 0.202,0 0.4,0.056 0.572,0.162 l 7.545,4.603 7.547,-4.604 c 0.171,-0.105 0.368,-0.161 0.571,-0.161 0.387,0 0.737,0.197 0.938,0.527 0.153,0.249 0.2,0.545 0.13,0.83 -0.069,0.286 -0.245,0.527 -0.496,0.68 l -6.581,4.015 6.581,4.015 c 0.251,0.153 0.427,0.394 0.496,0.68 0.07,0.285 0.023,0.58 -0.131,0.831 C 0.74,-0.202 0.381,0 0,0 m 0.111,-0.562 c 0.185,0 0.254,-0.081 0.359,-0.251 0.158,-0.259 0.076,-0.597 -0.184,-0.755 l -7.349,-4.484 7.349,-4.485 c 0.26,-0.157 0.342,-0.496 0.184,-0.754 -0.104,-0.17 -0.285,-0.264 -0.47,-0.264 -0.098,0 -0.196,0.026 -0.285,0.081 l -7.833,4.779 -7.832,-4.779 c -0.089,-0.055 -0.188,-0.081 -0.285,-0.081 -0.186,0 -0.367,0.094 -0.47,0.264 -0.158,0.258 -0.076,0.597 0.183,0.754 l 7.35,4.485 -7.35,4.484 c -0.259,0.158 -0.341,0.496 -0.183,0.755 0.103,0.17 0.284,0.264 0.47,0.264 0.097,0 0.196,-0.027 0.285,-0.081 l 7.832,-4.779 7.833,4.779 c 0.089,0.054 0.187,0.081 0.285,0.081 z" style="fill:#ffffff;fill-opacity:1;fill-rule:nonzero;stroke:none" id="path802"></path></g></g></g></g></g></g></svg> 