<?xml version="1.0" encoding="UTF-8" standalone="no"?> <!-- Created with Inkscape (http://www.inkscape.org/) --> <svg xmlns:inkscape="http://www.inkscape.org/namespaces/inkscape" xmlns:sodipodi="http://sodipodi.sourceforge.net/DTD/sodipodi-0.dtd" xmlns="http://www.w3.org/2000/svg" xmlns:svg="http://www.w3.org/2000/svg" width="7mm" height="7mm" viewBox="0 0 7 7" version="1.1" id="svg1875" sodipodi:docname="nie_czyscic_chemicznie.svg" inkscape:version="1.1.1 (3bf5ae0d25, 2021-09-20)"><defs id="defs1872"></defs><path d="M 1.527214,5.46286 H 5.453277 V 1.53678 H 1.527214 Z M 5.658241,5.87279 H 1.322602 c -0.113241,0 -0.204963,-0.0914 -0.204963,-0.20497 V 1.33217 c 0,-0.11323 0.09172,-0.20496 0.204963,-0.20496 h 4.335639 c 0.113242,0 0.204964,0.0917 0.204964,0.20496 v 4.33565 c 0,0.11359 -0.09172,0.20497 -0.204964,0.20497" style="fill:#002330;fill-opacity:1;fill-rule:nonzero;stroke:none;stroke-width:0.352778" id="path116"></path><g id="g118" transform="matrix(0.29532608,0,0,-0.29532608,3.4903583,2.1418303)" style="fill:#002330;fill-opacity:1"><path d="m 0,0 c -2.536,0 -4.599,-2.063 -4.599,-4.599 0,-2.536 2.063,-4.599 4.599,-4.599 2.536,0 4.599,2.063 4.599,4.599 C 4.599,-2.063 2.536,0 0,0 m 0,-10.359 c -3.177,0 -5.761,2.583 -5.761,5.76 0,3.176 2.584,5.76 5.761,5.76 3.176,0 5.76,-2.584 5.76,-5.76 0,-3.177 -2.584,-5.76 -5.76,-5.76" style="fill:#002330;fill-opacity:1;fill-rule:nonzero;stroke:none" id="path120"></path></g><g id="g122" transform="matrix(0.35277777,0,0,-0.35277777,6.35422,5.57576)" style="fill:#002330;fill-opacity:1"><path d="m 0,0 c -0.157,0 -0.312,0.043 -0.446,0.123 l -7.693,4.6 -7.694,-4.599 C -15.968,0.043 -16.122,0 -16.279,0 c -0.305,0 -0.592,0.163 -0.748,0.424 -0.119,0.2 -0.154,0.433 -0.097,0.66 0.057,0.226 0.198,0.415 0.398,0.535 l 6.889,4.119 -6.89,4.119 c -0.199,0.119 -0.34,0.31 -0.397,0.535 -0.057,0.226 -0.022,0.46 0.097,0.659 0.155,0.262 0.443,0.425 0.748,0.425 0.157,0 0.311,-0.043 0.446,-0.124 l 7.694,-4.599 7.693,4.599 c 0.134,0.081 0.289,0.124 0.446,0.124 0.305,0 0.592,-0.163 0.749,-0.425 C 0.867,10.852 0.902,10.618 0.845,10.392 0.788,10.167 0.647,9.976 0.447,9.856 L -6.442,5.738 0.447,1.618 C 0.647,1.499 0.788,1.31 0.845,1.084 0.902,0.857 0.867,0.624 0.748,0.424 0.591,0.163 0.305,0 0,0" style="fill:#002330;fill-opacity:1;fill-rule:nonzero;stroke:none" id="path124"></path></g><g id="g126" transform="matrix(0.35277777,0,0,-0.35277777,6.3705,1.32501)"><path d="m 0,0 c -0.209,0 -0.415,-0.057 -0.595,-0.165 l -7.544,-4.51 -7.545,4.511 C -15.863,-0.057 -16.069,0 -16.279,0 c -0.407,0 -0.789,-0.217 -0.997,-0.566 -0.159,-0.266 -0.205,-0.578 -0.129,-0.879 0.075,-0.301 0.264,-0.554 0.53,-0.713 l 6.473,-3.87 -6.473,-3.87 c -0.266,-0.159 -0.455,-0.412 -0.53,-0.713 -0.076,-0.301 -0.03,-0.614 0.129,-0.879 0.209,-0.349 0.591,-0.566 0.997,-0.566 0.21,0 0.415,0.057 0.595,0.164 l 7.545,4.511 7.544,-4.511 c 0.18,-0.107 0.386,-0.164 0.595,-0.164 0.407,0 0.789,0.217 0.998,0.566 0.159,0.265 0.205,0.578 0.129,0.879 -0.076,0.301 -0.264,0.554 -0.531,0.714 l -6.472,3.869 6.473,3.87 c 0.266,0.159 0.454,0.412 0.53,0.713 0.076,0.301 0.03,0.613 -0.129,0.88 C 0.789,-0.217 0.407,0 0,0 m 0.023,-0.581 c 0.198,0 0.367,-0.1 0.477,-0.282 0.164,-0.275 0.074,-0.632 -0.202,-0.797 l -7.306,-4.368 7.306,-4.368 c 0.276,-0.165 0.366,-0.521 0.202,-0.796 -0.109,-0.182 -0.302,-0.284 -0.5,-0.284 -0.101,0 -0.204,0.028 -0.297,0.082 l -7.842,4.69 -7.842,-4.69 c -0.094,-0.054 -0.196,-0.082 -0.298,-0.082 -0.197,0 -0.39,0.102 -0.498,0.284 -0.165,0.275 -0.076,0.631 0.2,0.796 l 7.306,4.368 -7.306,4.368 c -0.276,0.165 -0.365,0.522 -0.2,0.797 0.108,0.182 0.301,0.282 0.498,0.282 0.102,0 0.204,-0.026 0.298,-0.082 l 7.842,-4.689 7.842,4.689 c 0.093,0.056 0.195,0.082 0.297,0.082 z" style="fill:#ffffff;fill-opacity:1;fill-rule:nonzero;stroke:none" id="path128"></path></g></svg> 