<?xml version="1.0" encoding="UTF-8" standalone="no"?> <!-- Created with Inkscape (http://www.inkscape.org/) --> <svg xmlns:inkscape="http://www.inkscape.org/namespaces/inkscape" xmlns:sodipodi="http://sodipodi.sourceforge.net/DTD/sodipodi-0.dtd" xmlns="http://www.w3.org/2000/svg" xmlns:svg="http://www.w3.org/2000/svg" width="7mm" height="7mm" viewBox="0 0 7 7" version="1.1" id="svg1875" inkscape:version="1.1.1 (3bf5ae0d25, 2021-09-20)" sodipodi:docname="nie_wybielac.svg"><defs id="defs1872"></defs><g inkscape:label="Warstwa 1" inkscape:groupmode="layer" id="layer1" transform="translate(-16.887924,-216.08273)"><g id="g3194" transform="translate(7.6232036,7.2674773)" style="fill:#002330;fill-opacity:1"><g id="g150" transform="matrix(0.35277777,0,0,-0.35277777,7.8283983,207.97107)" style="fill:#002330;fill-opacity:1"><g aria-label="P" transform="scale(1,-1)" id="text5232" style="font-weight:bold;font-size:6.93185px;line-height:1.25;font-family:'Kumbh Sans';-inkscape-font-specification:'Kumbh Sans Bold';stroke-width:0.173296"><g id="g760" transform="matrix(1,0,0,-1,9.028044,15.843244)" style="fill:#002330;fill-opacity:1"><path d="M 0,0 H 9.93 L 4.965,8.263 Z M 10.794,-0.979 H -0.865 c -0.176,0 -0.339,0.096 -0.425,0.249 -0.087,0.153 -0.085,0.341 0.006,0.492 l 5.829,9.702 c 0.177,0.295 0.662,0.295 0.839,0 l 5.829,-9.702 c 0.091,-0.151 0.094,-0.339 0.007,-0.492 -0.087,-0.153 -0.25,-0.249 -0.426,-0.249" style="fill:#002330;fill-opacity:1;fill-rule:nonzero;stroke:none" id="path762"></path></g><g id="g764" transform="matrix(1,0,0,-1,20.849244,18.226044)" style="fill:#002330;fill-opacity:1"><path d="M 0,0 C -0.132,0 -0.262,0.036 -0.375,0.104 L -6.856,3.979 -13.337,0.104 C -13.452,0.036 -13.582,0 -13.714,0 c -0.256,0 -0.498,0.137 -0.63,0.357 -0.208,0.348 -0.094,0.799 0.253,1.006 l 5.804,3.471 -5.804,3.471 c -0.347,0.207 -0.461,0.658 -0.253,1.006 0.132,0.22 0.373,0.357 0.631,0.357 0.132,0 0.262,-0.036 0.375,-0.104 l 6.482,-3.875 6.48,3.875 C -0.262,9.632 -0.132,9.668 0,9.668 0.257,9.668 0.498,9.531 0.63,9.312 0.838,8.963 0.725,8.512 0.378,8.305 L -5.427,4.834 0.378,1.363 C 0.725,1.156 0.838,0.705 0.631,0.357 0.498,0.137 0.257,0 0,0" style="fill:#002330;fill-opacity:1;fill-rule:nonzero;stroke:none" id="path766"></path></g><g id="g768" transform="matrix(1,0,0,-1,20.849244,8.313444)"><path d="m 0,0 c -0.176,0 -0.349,-0.048 -0.501,-0.138 l -6.355,-3.8 -6.356,3.799 C -13.364,-0.048 -13.537,0 -13.713,0 c -0.343,0 -0.665,-0.182 -0.841,-0.476 -0.276,-0.463 -0.125,-1.066 0.337,-1.342 l 5.453,-3.261 -5.453,-3.26 c -0.462,-0.277 -0.613,-0.879 -0.337,-1.342 0.176,-0.294 0.498,-0.476 0.84,-0.476 0.176,0 0.349,0.048 0.501,0.137 l 6.357,3.801 6.354,-3.8 c 0.153,-0.09 0.326,-0.138 0.502,-0.138 0.342,0 0.664,0.182 0.84,0.475 0.277,0.464 0.126,1.066 -0.337,1.343 l -5.453,3.26 5.453,3.261 c 0.463,0.276 0.614,0.879 0.338,1.341 C 0.664,-0.182 0.342,0 0,0 m 0.077,-0.489 c 0.167,0 0.251,-0.085 0.344,-0.238 0.138,-0.232 0.062,-0.533 -0.169,-0.671 l -6.155,-3.681 6.155,-3.68 C 0.483,-8.897 0.559,-9.198 0.421,-9.43 0.329,-9.583 0.166,-9.668 0,-9.668 c -0.085,0 -0.172,0.022 -0.251,0.069 l -6.605,3.95 -6.607,-3.95 c -0.079,-0.047 -0.165,-0.069 -0.251,-0.069 -0.166,0 -0.328,0.085 -0.42,0.238 -0.138,0.232 -0.063,0.533 0.168,0.671 l 6.155,3.68 -6.155,3.681 c -0.231,0.138 -0.306,0.439 -0.168,0.671 0.092,0.153 0.254,0.238 0.421,0.238 0.085,0 0.171,-0.023 0.25,-0.07 l 6.607,-3.949 6.605,3.949 c 0.079,0.047 0.165,0.07 0.251,0.07 z" style="fill:#ffffff;fill-opacity:1;fill-rule:nonzero;stroke:none" id="path770"></path></g></g></g></g></g></svg> 