<?xml version="1.0" encoding="UTF-8" standalone="no"?> <!-- Created with Inkscape (http://www.inkscape.org/) --> <svg xmlns:inkscape="http://www.inkscape.org/namespaces/inkscape" xmlns:sodipodi="http://sodipodi.sourceforge.net/DTD/sodipodi-0.dtd" xmlns="http://www.w3.org/2000/svg" xmlns:svg="http://www.w3.org/2000/svg" width="7mm" height="7mm" viewBox="0 0 7 7" version="1.1" id="svg1875" sodipodi:docname="nie_chlorowac.svg" inkscape:version="1.1.1 (3bf5ae0d25, 2021-09-20)"><defs id="defs1872"></defs><g id="layer1" transform="translate(-16.887924,-216.08273)"><g id="g2119" transform="translate(8.4621432,5.2607598)"><g aria-label="CL" id="text2851" style="font-size:1.87178px;line-height:1.25;stroke-width:0.0467947"><path d="m 12.115909,215.28065 q -0.09596,0.0932 -0.227575,0.14623 -0.131609,0.053 -0.286068,0.053 -0.156286,0 -0.287895,-0.053 -0.13161,-0.0539 -0.229403,-0.14989 -0.09688,-0.0969 -0.150803,-0.22666 -0.05392,-0.12978 -0.05392,-0.28333 0,-0.15354 0.05392,-0.28332 0.05392,-0.1307 0.150803,-0.22666 0.09779,-0.096 0.229403,-0.14898 0.131609,-0.0539 0.287895,-0.0539 0.153545,0 0.284241,0.053 0.131609,0.053 0.227574,0.14714 l -0.1965,0.19742 q -0.05758,-0.0704 -0.140749,-0.11059 -0.08226,-0.0411 -0.179135,-0.0411 -0.09231,0 -0.17091,0.0357 -0.07769,0.0347 -0.136179,0.0987 -0.05849,0.0631 -0.09048,0.14806 -0.03199,0.085 -0.03199,0.18371 0,0.10053 0.03199,0.18553 0.03199,0.085 0.09048,0.14898 0.05849,0.0631 0.136179,0.0987 0.0786,0.0347 0.17091,0.0347 0.09688,0 0.179135,-0.0402 0.08226,-0.0411 0.139835,-0.1115 z" style="font-weight:bold;font-family:'Kumbh Sans';-inkscape-font-specification:'Kumbh Sans Bold'" id="path9023"></path><path d="m 13.185237,215.45247 h -0.895676 v -1.37093 h 0.281498 v 1.12507 h 0.614178 z" style="font-weight:bold;font-family:'Kumbh Sans';-inkscape-font-specification:'Kumbh Sans Bold'" id="path9025"></path></g><g id="g104" transform="matrix(0.35277777,0,0,-0.35277777,9.8469271,215.86106)" style="fill:#000000;fill-opacity:1"><path d="M 0,0 H 11.786 L 5.893,9.808 Z M 12.813,-1.162 H -1.026 c -0.209,0 -0.403,0.113 -0.505,0.295 -0.104,0.182 -0.101,0.405 0.007,0.585 l 6.919,11.516 c 0.21,0.349 0.786,0.349 0.996,0 L 13.31,-0.282 c 0.108,-0.18 0.111,-0.403 0.007,-0.585 -0.102,-0.182 -0.296,-0.295 -0.504,-0.295" style="fill:#000000;fill-opacity:1;fill-rule:nonzero;stroke:none" id="path106"></path></g><g id="g108" transform="matrix(0.35277777,0,0,-0.35277777,14.797352,216.79744)" style="fill:#000000;fill-opacity:1"><path d="M 0,0 C -0.126,0 -0.25,0.034 -0.357,0.099 L -8.14,4.752 -15.922,0.099 C -16.03,0.034 -16.153,0 -16.279,0 c -0.244,0 -0.473,0.13 -0.599,0.34 -0.197,0.329 -0.089,0.758 0.241,0.955 l 7.139,4.269 -7.139,4.269 c -0.33,0.197 -0.438,0.625 -0.241,0.956 0.126,0.209 0.355,0.339 0.6,0.339 0.125,0 0.248,-0.034 0.356,-0.099 l 7.782,-4.654 7.783,4.654 c 0.107,0.065 0.231,0.099 0.356,0.099 0.245,0 0.474,-0.13 0.6,-0.339 C 0.795,10.458 0.687,10.03 0.357,9.833 L -6.782,5.564 0.357,1.295 C 0.687,1.098 0.795,0.669 0.599,0.34 0.473,0.13 0.244,0 0,0" style="fill:#000000;fill-opacity:1;fill-rule:nonzero;stroke:none" id="path110"></path></g><g id="g112" transform="matrix(0.35277777,0,0,-0.35277777,14.796999,212.83077)"><path d="m 0,0 c -0.146,0 -0.291,-0.04 -0.416,-0.116 l -7.723,-4.617 -7.723,4.618 C -15.987,-0.04 -16.131,0 -16.278,0 c -0.284,0 -0.552,-0.152 -0.699,-0.396 -0.23,-0.385 -0.103,-0.885 0.282,-1.115 l 6.972,-4.169 -6.973,-4.17 c -0.384,-0.229 -0.511,-0.729 -0.281,-1.114 0.146,-0.244 0.414,-0.396 0.699,-0.396 0.147,0 0.291,0.04 0.417,0.115 l 7.722,4.618 7.723,-4.618 c 0.126,-0.075 0.27,-0.115 0.417,-0.115 0.285,0 0.552,0.152 0.698,0.396 0.23,0.385 0.104,0.885 -0.281,1.114 l -6.973,4.17 6.973,4.169 c 0.385,0.23 0.511,0.73 0.281,1.115 C 0.553,-0.152 0.285,0 0,0 m 0.083,-0.232 c 0.197,0 0.308,-0.101 0.417,-0.283 0.164,-0.276 0.075,-0.632 -0.201,-0.797 l -7.306,-4.368 7.306,-4.369 c 0.276,-0.165 0.365,-0.52 0.201,-0.796 -0.109,-0.182 -0.302,-0.283 -0.499,-0.283 -0.102,0 -0.204,0.026 -0.297,0.082 l -7.843,4.69 -7.842,-4.69 c -0.093,-0.056 -0.196,-0.082 -0.297,-0.082 -0.198,0 -0.39,0.101 -0.499,0.283 -0.164,0.276 -0.075,0.631 0.201,0.796 l 7.306,4.369 -7.306,4.368 c -0.276,0.165 -0.365,0.521 -0.201,0.797 0.109,0.182 0.302,0.283 0.499,0.283 0.102,0 0.204,-0.027 0.297,-0.083 l 7.842,-4.689 7.843,4.689 c 0.092,0.056 0.195,0.083 0.296,0.083 z" style="fill:#ffffff;fill-opacity:1;fill-rule:nonzero;stroke:none" id="path114"></path></g></g></g></svg> 