<?xml version="1.0" encoding="UTF-8" standalone="no"?> <!-- Created with Inkscape (http://www.inkscape.org/) --> <svg xmlns:inkscape="http://www.inkscape.org/namespaces/inkscape" xmlns:sodipodi="http://sodipodi.sourceforge.net/DTD/sodipodi-0.dtd" xmlns="http://www.w3.org/2000/svg" xmlns:svg="http://www.w3.org/2000/svg" width="7mm" height="7mm" viewBox="0 0 7 7" version="1.1" id="svg1875" sodipodi:docname="pranie_reczne.svg" inkscape:version="1.1.1 (3bf5ae0d25, 2021-09-20)"><defs id="defs1872"></defs><g id="g998"><g id="g985" transform="matrix(0.90951455,0,0,0.90951455,0.31669903,0.31669863)"><g id="g84" transform="matrix(0.33193906,0,0,-0.33193906,2.0517164,3.826573)" style="fill:#002330;fill-opacity:1"><path d="m 0,0 c -0.85,0 -1.699,0.276 -2.316,0.828 -0.363,0.325 -0.893,0.516 -1.466,0.534 -0.32,0.01 -0.572,0.278 -0.562,0.598 0.01,0.321 0.273,0.585 0.598,0.562 C -2.892,2.496 -2.113,2.205 -1.552,1.703 -0.763,0.997 0.767,0.996 1.547,1.694 2.786,2.805 4.954,2.805 6.189,1.698 6.972,0.998 8.501,0.998 9.28,1.696 9.955,2.302 10.973,2.604 11.992,2.5 12.311,2.469 12.544,2.185 12.513,1.866 12.481,1.546 12.195,1.31 11.877,1.345 11.181,1.413 10.485,1.217 10.056,0.832 8.819,-0.276 6.651,-0.275 5.417,0.832 4.635,1.532 3.105,1.532 2.325,0.833 1.705,0.278 0.852,0 0,0" style="fill:#002330;fill-opacity:1;fill-rule:nonzero;stroke:none" id="path86"></path></g><g id="g88" transform="matrix(0.33193906,0,0,-0.33193906,3.4634195,5.5361951)" style="fill:#002330;fill-opacity:1"><path d="M 0,0 C -0.083,0 -0.168,0.015 -0.252,0.043 -0.5,0.128 -0.687,0.287 -0.794,0.502 -0.955,0.827 -0.927,1.271 -0.715,1.789 -0.643,1.965 -0.517,2.318 -0.374,2.734 -0.633,2.197 -0.795,1.868 -0.853,1.767 -0.916,1.656 -0.99,1.487 -1.068,1.308 -1.19,1.031 -1.315,0.743 -1.439,0.581 -1.603,0.368 -1.852,0.247 -2.125,0.247 c -0.146,0 -0.294,0.035 -0.429,0.104 -0.392,0.199 -0.691,0.725 -0.419,1.411 0.125,0.317 0.431,1.025 0.71,1.646 C -2.666,2.683 -3.028,2.052 -3.24,1.821 -3.488,1.55 -3.75,1.493 -3.926,1.493 c -0.167,0 -0.335,0.053 -0.471,0.148 -0.118,0.083 -0.678,0.548 -0.165,1.648 0.372,0.799 1.094,2.126 1.348,2.552 0.06,0.1 0.168,0.271 0.305,0.487 0.346,0.545 0.985,1.551 1.06,1.818 0.007,0.023 0.014,0.047 0.02,0.071 C -1.832,8.215 -1.834,8.212 -1.837,8.21 -2.121,7.965 -2.525,7.63 -2.752,7.473 -3.214,7.152 -3.766,6.962 -4.228,6.962 c -0.116,0 -0.225,0.012 -0.324,0.035 -0.523,0.122 -0.713,0.422 -0.779,0.666 l -0.015,0.032 -0.001,0.041 c -0.006,0.035 -0.01,0.07 -0.013,0.107 l -0.011,0.164 0.037,0.031 c 0.037,0.153 0.127,0.281 0.268,0.38 0.105,0.074 0.896,0.615 0.896,0.615 0.198,0.192 0.632,0.567 0.821,0.701 0.197,0.141 0.761,0.591 1.016,0.837 0.279,0.273 1.188,0.86 2.042,1.399 0.294,0.186 0.635,0.324 0.965,0.457 0.439,0.178 0.852,0.345 1.029,0.57 0.088,0.113 0.336,0.5 1.003,1.834 L 2.841,15.101 6.802,12.93 6.641,12.67 C 6.028,11.677 5.687,10.868 5.658,10.328 5.578,8.857 4.805,6.501 4.324,5.631 4.048,5.131 3.772,4.09 3.506,2.539 L 3.482,2.404 C 3.396,1.926 3.12,0.813 2.403,0.777 H 2.397 C 2.172,0.777 2.007,0.846 1.882,0.975 1.643,1.222 1.57,1.666 1.658,2.333 1.683,2.521 1.747,2.888 1.821,3.3 1.514,2.355 1.189,1.398 1.11,1.199 0.952,0.799 0.635,0 0,0" style="fill:#002330;fill-opacity:1;fill-rule:nonzero;stroke:none" id="path90"></path></g><g id="g92" transform="matrix(0.33193906,0,0,-0.33193906,4.3648997,0.39113535)" style="fill:#ffffff;fill-opacity:1"><path d="m 0,0 -0.27,-0.539 c -0.699,-1.398 -0.92,-1.719 -0.972,-1.785 -0.129,-0.164 -0.543,-0.332 -0.908,-0.48 -0.344,-0.139 -0.697,-0.281 -1.012,-0.48 -1.242,-0.784 -1.848,-1.2 -2.09,-1.437 -0.245,-0.238 -0.79,-0.673 -0.981,-0.809 -0.196,-0.139 -0.613,-0.498 -0.861,-0.731 -0.186,-0.114 -0.451,-0.3 -0.854,-0.583 -0.175,-0.123 -0.279,-0.268 -0.338,-0.41 l -0.096,-0.063 0.015,-0.344 c 0.004,-0.047 0.009,-0.088 0.014,-0.125 v -0.041 l 0.021,-0.066 c 0.069,-0.275 0.29,-0.727 0.998,-0.893 0.121,-0.028 0.252,-0.043 0.39,-0.043 0.472,0 1.003,0.165 1.48,0.457 -0.154,-0.248 -0.304,-0.484 -0.406,-0.644 -0.142,-0.223 -0.25,-0.394 -0.31,-0.495 -0.255,-0.429 -0.984,-1.767 -1.361,-2.577 -0.611,-1.313 0.111,-1.904 0.262,-2.009 0.184,-0.129 0.411,-0.2 0.637,-0.2 0.195,0 0.386,0.051 0.56,0.15 -0.044,-0.603 0.283,-1.059 0.681,-1.261 0.175,-0.089 0.369,-0.136 0.561,-0.136 0.363,0 0.696,0.164 0.915,0.448 0.03,0.04 0.059,0.083 0.089,0.131 0.018,-0.056 0.04,-0.11 0.066,-0.162 0.142,-0.284 0.386,-0.493 0.707,-0.604 0.114,-0.04 0.231,-0.06 0.347,-0.06 0.833,0 1.199,0.925 1.375,1.369 0.011,0.028 0.027,0.07 0.047,0.125 0.056,-0.172 0.14,-0.315 0.251,-0.43 0.18,-0.185 0.424,-0.287 0.689,-0.287 h 0.016 l 0.04,10e-4 c 0.928,0.047 1.254,1.32 1.35,1.865 l 0.024,0.136 c 0.261,1.522 0.526,2.532 0.787,3.003 0.488,0.884 1.283,3.257 1.369,4.821 0.027,0.484 0.36,1.268 0.94,2.205 L 4.494,-2.462 3.957,-2.168 0.529,-0.29 Z M 0.472,-0.92 3.678,-2.677 C 3.201,-3.449 2.692,-4.431 2.652,-5.156 2.574,-6.589 1.822,-8.881 1.354,-9.728 0.915,-10.523 0.605,-12.322 0.504,-12.913 L 0.48,-13.046 c -0.024,-0.14 -0.257,-1.359 -0.808,-1.387 -0.008,-10e-4 -0.017,-10e-4 -0.026,-10e-4 -0.109,0 -0.201,0.038 -0.271,0.111 -0.213,0.22 -0.196,0.729 -0.145,1.118 0.036,0.265 0.149,0.889 0.258,1.492 0.136,0.749 0.276,1.522 0.269,1.616 -0.005,0.076 -0.041,0.164 -0.09,0.174 -0.01,0.003 -0.032,0.017 -0.062,0.017 -0.055,0 -0.137,-0.054 -0.211,-0.354 -0.182,-0.74 -1.127,-3.576 -1.269,-3.934 l -0.006,-0.014 c -0.134,-0.338 -0.397,-1.002 -0.835,-1.002 -0.05,0 -0.103,0.009 -0.158,0.028 -0.175,0.06 -0.303,0.166 -0.376,0.314 -0.123,0.246 -0.092,0.608 0.088,1.046 0.245,0.6 1.098,3.191 1.17,3.46 0.04,0.147 0.013,0.246 -0.004,0.254 0,0 -0.014,0.014 -0.038,0.014 -0.029,0 -0.074,-0.022 -0.129,-0.117 -0.108,-0.188 -0.514,-1.03 -0.906,-1.845 -0.347,-0.718 -0.674,-1.397 -0.751,-1.532 -0.068,-0.119 -0.146,-0.298 -0.23,-0.487 -0.115,-0.263 -0.235,-0.535 -0.336,-0.668 -0.111,-0.144 -0.278,-0.22 -0.454,-0.22 -0.099,0 -0.202,0.024 -0.298,0.073 -0.288,0.146 -0.487,0.525 -0.281,1.045 0.206,0.52 0.904,2.108 1.156,2.595 0.103,0.197 0.274,0.497 0.439,0.786 0.232,0.405 0.471,0.824 0.496,0.92 0.023,0.086 -0.006,0.201 -0.06,0.224 -0.007,0.003 -0.013,0.005 -0.021,0.005 -0.05,0 -0.119,-0.065 -0.19,-0.18 -0.132,-0.214 -0.469,-0.686 -0.766,-1.102 -0.247,-0.346 -0.481,-0.673 -0.55,-0.787 -0.038,-0.062 -0.118,-0.207 -0.219,-0.39 -0.303,-0.547 -0.809,-1.461 -1.035,-1.709 -0.157,-0.171 -0.324,-0.233 -0.473,-0.233 -0.118,0 -0.224,0.039 -0.305,0.095 -0.084,0.059 -0.483,0.396 -0.068,1.288 0.37,0.794 1.084,2.105 1.334,2.525 0.059,0.1 0.166,0.267 0.301,0.48 0.401,0.632 1.008,1.586 1.095,1.895 0.1,0.358 0.206,0.784 0.233,0.891 -0.07,-0.034 -0.137,-0.072 -0.194,-0.113 -0.106,-0.077 -0.298,-0.244 -0.504,-0.421 -0.318,-0.276 -0.688,-0.578 -0.883,-0.713 -0.426,-0.294 -0.919,-0.459 -1.311,-0.459 -0.093,0 -0.179,0.009 -0.258,0.027 -0.325,0.076 -0.516,0.24 -0.57,0.485 v 10e-4 c 0,0 0,0 0,0.001 -0.007,0.031 -0.012,0.063 -0.014,0.096 l -0.001,0.017 0.008,0.005 c 0.006,0.152 0.081,0.238 0.165,0.297 0.103,0.072 0.892,0.612 0.892,0.612 0.231,0.219 0.654,0.582 0.826,0.705 0.208,0.148 0.781,0.605 1.049,0.865 0.264,0.258 1.204,0.863 1.995,1.362 0.271,0.171 0.601,0.304 0.919,0.433 0.475,0.193 0.923,0.374 1.148,0.66 0.207,0.264 0.663,1.14 1.035,1.883 z" style="fill:#ffffff;fill-opacity:1;fill-rule:nonzero;stroke:none" id="path94"></path></g><g id="g76" transform="matrix(0.33193906,0,0,-0.33193906,3.5000659,6.6088549)" style="fill:#002330;fill-opacity:1"><path d="m 0,0 h -5.746 c -0.265,0 -0.496,0.18 -0.562,0.436 l -3.004,11.661 c -0.08,0.311 0.107,0.628 0.418,0.707 0.306,0.079 0.627,-0.106 0.707,-0.417 L -5.295,1.161 H 0 c 0.321,0 0.581,-0.26 0.581,-0.58 C 0.581,0.26 0.321,0 0,0" style="fill:#002330;fill-opacity:1;fill-rule:nonzero;stroke:none" id="path78"></path></g><g id="g80" transform="matrix(0.33193906,0,0,-0.33193906,5.407255,6.6088549)" style="fill:#002330;fill-opacity:1"><path d="m 0,0 h -5.746 c -0.321,0 -0.58,0.26 -0.58,0.581 0,0.32 0.259,0.58 0.58,0.58 h 5.296 l 2.891,11.226 c 0.08,0.311 0.4,0.497 0.707,0.417 0.311,-0.079 0.498,-0.396 0.418,-0.707 L 0.562,0.436 C 0.496,0.18 0.265,0 0,0" style="fill:#002330;fill-opacity:1;fill-rule:nonzero;stroke:none" id="path82"></path></g></g></g></svg> 