<?xml version="1.0" encoding="UTF-8" standalone="no"?> <!-- Created with Inkscape (http://www.inkscape.org/) --> <svg xmlns:inkscape="http://www.inkscape.org/namespaces/inkscape" xmlns:sodipodi="http://sodipodi.sourceforge.net/DTD/sodipodi-0.dtd" xmlns="http://www.w3.org/2000/svg" xmlns:svg="http://www.w3.org/2000/svg" width="7mm" height="7mm" viewBox="0 0 7 7" version="1.1" id="svg1875" inkscape:version="1.1.1 (3bf5ae0d25, 2021-09-20)" sodipodi:docname="pranie_50.svg"><defs id="defs1872"></defs><g inkscape:label="Warstwa 1" inkscape:groupmode="layer" id="layer1" transform="translate(-16.887924,-216.08273)"><g id="g3194" transform="translate(7.6232036,7.2674773)" style="fill:#002330;fill-opacity:1"><g id="g150" transform="matrix(0.35277777,0,0,-0.35277777,7.8283983,207.97107)" style="fill:#002330;fill-opacity:1"><g aria-label="P" transform="scale(1,-1)" id="text5232" style="font-weight:bold;font-size:6.93185px;line-height:1.25;font-family:'Kumbh Sans';-inkscape-font-specification:'Kumbh Sans Bold';stroke-width:0.173296"><g aria-label="50" id="text30124" style="font-size:5.82907px;stroke-width:0.0252539"></g><g id="g772" transform="matrix(1,0,0,-1,13.993224,18.451819)"></g><g id="g776" transform="matrix(1,0,0,-1,19.493224,18.451819)"></g><g id="g780" transform="matrix(1,0,0,-1,9.8154244,10.427919)" style="fill:#002330;fill-opacity:1"><path id="path782" style="fill:#002330;fill-opacity:1;fill-rule:nonzero;stroke:none" d="m 0,0 c -0.812,0 -1.626,0.265 -2.217,0.792 -0.347,0.312 -0.855,0.495 -1.403,0.512 -0.307,0.009 -0.548,0.265 -0.538,0.572 0.01,0.307 0.267,0.56 0.573,0.539 C -2.769,2.39 -2.022,2.111 -1.485,1.63 -0.729,0.954 0.734,0.954 1.481,1.622 2.668,2.686 4.743,2.686 5.925,1.626 6.674,0.956 8.139,0.956 8.885,1.624 9.53,2.203 10.501,2.493 11.48,2.394 11.786,2.363 12.01,2.091 11.979,1.786 11.948,1.48 11.672,1.253 11.371,1.288 10.705,1.353 10.038,1.166 9.627,0.796 8.443,-0.264 6.367,-0.264 5.186,0.796 4.437,1.466 2.973,1.466 2.227,0.798 1.633,0.266 0.816,0 0,0 m 4.1777996,-8.0239 h -5.501 c -0.254,0 -0.475,0.171 -0.538,0.417 l -2.876,11.164 c -0.076,0.297 0.102,0.6 0.4,0.677 0.295,0.075 0.601,-0.102 0.677,-0.4 l 2.768,-10.746 h 5.07 c 0.307,0 0.556,-0.249 0.556,-0.556 0,-0.307 -0.249,-0.556 -0.556,-0.556 m 5.5,0 h -5.5 c -0.308,0 -0.557,0.249 -0.557,0.556 0,0.307 0.249,0.556 0.557,0.556 h 5.069 L 12.0148,3.8341 c 0.076,0.298 0.386,0.475 0.677,0.4 0.298,-0.077 0.476,-0.38 0.4,-0.677 l -2.875,-11.164 c -0.063,-0.246 -0.2850004,-0.417 -0.5390004,-0.417 m -3.908036,2.407868 q -0.478166,0 -0.828252,0.259007 -0.350086,0.261853 -0.543629,0.757096 -0.190697,0.498089 -0.190697,1.2068 0,0.705864 0.190697,1.201107 0.193543,0.495243 0.543629,0.75425 0.350086,0.261852 0.828252,0.261852 0.481012,0 0.831098,-0.261852 0.350085,-0.259007 0.540782,-0.75425 0.193544,-0.495243 0.193544,-1.201107 0,-0.708711 -0.190697,-1.2068 -0.190697,-0.495243 -0.543629,-0.757096 -0.350086,-0.259007 -0.831098,-0.259007 z m 0,0.765635 q 0.318777,0 0.492397,0.381394 0.176466,0.381395 0.176466,1.073027 0,0.694479 -0.176466,1.073027 -0.17362,0.381395 -0.492397,0.381395 -0.313085,0 -0.489551,-0.381395 -0.176466,-0.378548 -0.176466,-1.073027 0,-0.691632 0.176466,-1.073027 0.176466,-0.381394 0.489551,-0.381394 z m -4.892662,-0.239083 0.45255,0.711557 q 0.111002,-0.213467 0.333008,-0.344394 0.222006,-0.12808 0.481012,-0.12808 0.224852,0 0.398472,0.09677 0.173619,0.09677 0.270391,0.267545 0.09962,0.17362 0.09962,0.395625 0,0.224852 -0.09962,0.395626 -0.09677,0.170773 -0.273237,0.267545 -0.176466,0.09677 -0.401318,0.09677 -0.170774,0 -0.321624,-0.05977 -0.15085,-0.05977 -0.270391,-0.17362 l -0.424088,0.247625 0.187851,2.054975 h 2.245672 v -0.765635 h -1.443036 l -0.09393,-0.902254 q 0.190697,0.05408 0.404164,0.05408 0.398472,0 0.711557,-0.170774 0.313084,-0.170773 0.492397,-0.466781 0.182158,-0.296007 0.182158,-0.680248 0,-0.409856 -0.207774,-0.73148 -0.204929,-0.321623 -0.563553,-0.506628 -0.355778,-0.185005 -0.816867,-0.185005 -0.38424,0 -0.737172,0.136619 -0.350086,0.139465 -0.606246,0.389933 z"></path></g></g></g></g></g></svg> 