<?xml version="1.0" encoding="UTF-8" standalone="no"?> <!-- Created with Inkscape (http://www.inkscape.org/) --> <svg xmlns:inkscape="http://www.inkscape.org/namespaces/inkscape" xmlns:sodipodi="http://sodipodi.sourceforge.net/DTD/sodipodi-0.dtd" xmlns="http://www.w3.org/2000/svg" xmlns:svg="http://www.w3.org/2000/svg" width="7mm" height="7mm" viewBox="0 0 7 7" version="1.1" id="svg1875" inkscape:version="1.1.1 (3bf5ae0d25, 2021-09-20)" sodipodi:docname="pranie_chemiczne_P.svg"><defs id="defs1872"></defs><g inkscape:label="Warstwa 1" inkscape:groupmode="layer" id="layer1" transform="translate(-16.887924,-216.08273)"><g id="g3194" transform="translate(7.6232036,7.2674773)" style="fill:#002330;fill-opacity:1"><g id="g146" transform="matrix(0.35277777,0,0,-0.35277777,12.764544,210.55595)" style="fill:#002330;fill-opacity:1"><path d="m 0,0 c -2.75,0 -4.986,-2.237 -4.986,-4.987 0,-2.749 2.236,-4.986 4.986,-4.986 2.75,0 4.987,2.237 4.987,4.986 C 4.987,-2.237 2.75,0 0,0 m 0,-11.135 c -3.39,0 -6.147,2.759 -6.147,6.148 0,3.39 2.757,6.148 6.147,6.148 3.39,0 6.148,-2.758 6.148,-6.148 0,-3.389 -2.758,-6.148 -6.148,-6.148" style="fill:#002330;fill-opacity:1;fill-rule:nonzero;stroke:none" id="path148"></path></g><g id="g150" transform="matrix(0.35277777,0,0,-0.35277777,7.8283983,207.97107)" style="fill:#002330;fill-opacity:1"><g aria-label="P" transform="scale(1,-1)" id="text5232" style="font-weight:bold;font-size:6.93185px;line-height:1.25;font-family:'Kumbh Sans';-inkscape-font-specification:'Kumbh Sans Bold';stroke-width:0.173296"><path d="M 12.088835,14.852738 V 9.7756998 h 1.736347 q 0.639707,0 1.10341,0.209851 0.467087,0.2064662 0.717555,0.5923212 0.250467,0.38247 0.250467,0.913867 0,0.531397 -0.250467,0.920636 -0.250468,0.385855 -0.714171,0.595706 -0.460318,0.209851 -1.09664,0.209851 H 13.13132 v 1.634806 z m 1.042485,-2.548673 h 0.595706 q 0.531397,0 0.815711,-0.209851 0.287699,-0.213236 0.287699,-0.602475 0,-0.38247 -0.287699,-0.592321 -0.284314,-0.213236 -0.815711,-0.213236 H 13.13132 Z" id="path23937"></path></g></g></g></g></svg> 