<?xml version="1.0" encoding="UTF-8" standalone="no"?> <!-- Created with Inkscape (http://www.inkscape.org/) --> <svg xmlns:inkscape="http://www.inkscape.org/namespaces/inkscape" xmlns:sodipodi="http://sodipodi.sourceforge.net/DTD/sodipodi-0.dtd" xmlns="http://www.w3.org/2000/svg" xmlns:svg="http://www.w3.org/2000/svg" width="7mm" height="7mm" viewBox="0 0 7 7" version="1.1" id="svg1875" inkscape:version="1.1.1 (3bf5ae0d25, 2021-09-20)" sodipodi:docname="pranie_30.svg"><defs id="defs1872"></defs><g inkscape:label="Warstwa 1" inkscape:groupmode="layer" id="layer1" transform="translate(-16.887924,-216.08273)"><g id="g3194" transform="translate(7.6232036,7.2674773)" style="fill:#002330;fill-opacity:1"><g id="g150" transform="matrix(0.35277777,0,0,-0.35277777,7.8283983,207.97107)" style="fill:#002330;fill-opacity:1"><g aria-label="P" transform="scale(1,-1)" id="text5232" style="font-weight:bold;font-size:6.93185px;line-height:1.25;font-family:'Kumbh Sans';-inkscape-font-specification:'Kumbh Sans Bold';stroke-width:0.173296"><g id="g772" transform="matrix(1,0,0,-1,13.993224,18.451819)"></g><g id="g776" transform="matrix(1,0,0,-1,19.493224,18.451819)"></g><g id="g780" transform="matrix(1,0,0,-1,9.8154244,10.427919)" style="fill:#002330;fill-opacity:1"></g><g aria-label="30" id="text30124" style="font-size:5.82907px;stroke-width:0.0252539"><path id="path48506" d="m 15.676267,16.043951 q -0.478166,0 -0.828252,-0.259007 -0.350085,-0.261853 -0.543629,-0.757096 -0.190697,-0.498089 -0.190697,-1.2068 0,-0.705864 0.190697,-1.201107 0.193544,-0.495243 0.543629,-0.75425 0.350086,-0.261852 0.828252,-0.261852 0.481012,0 0.831098,0.261852 0.350086,0.259007 0.540783,0.75425 0.193543,0.495243 0.193543,1.201107 0,0.708711 -0.190697,1.2068 -0.190697,0.495243 -0.543629,0.757096 -0.350086,0.259007 -0.831098,0.259007 z m 0,-0.765635 q 0.318777,0 0.492397,-0.381394 0.176466,-0.381395 0.176466,-1.073027 0,-0.694479 -0.176466,-1.073027 -0.17362,-0.381395 -0.492397,-0.381395 -0.313085,0 -0.489551,0.381395 -0.176466,0.378548 -0.176466,1.073027 0,0.691632 0.176466,1.073027 0.176466,0.381394 0.489551,0.381394 z m -4.932509,0.310238 0.335854,-0.648939 q 0.227698,0.167927 0.446858,0.253314 0.222005,0.08539 0.42978,0.08539 0.202082,0 0.355778,-0.07685 0.156543,-0.07685 0.244776,-0.213467 0.08823,-0.136619 0.08823,-0.313085 0,-0.293161 -0.24193,-0.455396 Q 12.161175,14.05444 11.728549,14.05444 H 11.54639 v -0.609092 h 0.182159 q 0.23339,0 0.415549,-0.074 0.185004,-0.07685 0.290315,-0.207775 0.10531,-0.133772 0.10531,-0.304546 0,-0.142311 -0.07685,-0.253314 -0.074,-0.111003 -0.204928,-0.17362 -0.12808,-0.06262 -0.296008,-0.06262 -0.173619,0 -0.364317,0.074 -0.18785,0.074 -0.395625,0.224852 l -0.38424,-0.609092 q 0.250468,-0.21916 0.566399,-0.335855 0.315931,-0.119541 0.660324,-0.119541 0.38424,0 0.680248,0.139465 0.298854,0.139465 0.469627,0.38424 0.17362,0.244776 0.17362,0.563553 0,0.347239 -0.202082,0.620477 -0.202082,0.273238 -0.532244,0.418395 0.42978,0.119542 0.674555,0.398472 0.247622,0.27893 0.247622,0.677401 0,0.355779 -0.199236,0.637555 -0.19639,0.27893 -0.537937,0.441165 -0.341547,0.159389 -0.777019,0.159389 -0.358625,0 -0.691633,-0.116696 -0.333009,-0.119541 -0.606246,-0.338701 z M 9.8154244,10.427919 c -0.812,0 -1.626,-0.265 -2.217,-0.792 -0.347,-0.312 -0.855,-0.495 -1.403,-0.512 -0.307,-0.009 -0.548,-0.265 -0.538,-0.572 0.01,-0.307 0.267,-0.56 0.573,-0.539 0.816,0.025 1.563,0.304 2.1,0.785 0.756,0.676 2.2189996,0.676 2.9659996,0.008 1.187,-1.064 3.262,-1.064 4.444,-0.004 0.749,0.67 2.214,0.67 2.96,0.002 0.645,-0.579 1.616,-0.869 2.595,-0.77 0.306,0.031 0.53,0.303 0.499,0.608 -0.031,0.306 -0.307,0.533 -0.608,0.498 -0.666,-0.065 -1.333,0.122 -1.744,0.492 -1.184,1.06 -3.26,1.06 -4.441,0 -0.749,-0.67 -2.213,-0.67 -2.959,-0.002 -0.594,0.532 -1.411,0.798 -2.2269996,0.798 m 4.1777996,8.0239 h -5.501 c -0.254,0 -0.475,-0.171 -0.538,-0.417 l -2.876,-11.164 c -0.076,-0.297 0.102,-0.6 0.4,-0.677 0.295,-0.075 0.601,0.102 0.677,0.4 l 2.768,10.746 h 5.07 c 0.307,0 0.556,0.249 0.556,0.556 0,0.307 -0.249,0.556 -0.556,0.556 m 5.5,0 h -5.5 c -0.308,0 -0.557,-0.249 -0.557,-0.556 0,-0.307 0.249,-0.556 0.557,-0.556 h 5.069 l 2.768,-10.746 c 0.076,-0.298 0.386,-0.475 0.677,-0.4 0.298,0.077 0.476,0.38 0.4,0.677 l -2.875,11.164 c -0.063,0.246 -0.285,0.417 -0.539,0.417"></path></g></g></g></g></g></svg> 