<?xml version="1.0" encoding="UTF-8" standalone="no"?> <!-- Created with Inkscape (http://www.inkscape.org/) --> <svg xmlns:inkscape="http://www.inkscape.org/namespaces/inkscape" xmlns:sodipodi="http://sodipodi.sourceforge.net/DTD/sodipodi-0.dtd" xmlns="http://www.w3.org/2000/svg" xmlns:svg="http://www.w3.org/2000/svg" width="7mm" height="7mm" viewBox="0 0 7 7" version="1.1" id="svg1875" inkscape:version="1.1.1 (3bf5ae0d25, 2021-09-20)" sodipodi:docname="pranie_40.svg"><defs id="defs1872"></defs><g inkscape:label="Warstwa 1" inkscape:groupmode="layer" id="layer1" transform="translate(-16.887924,-216.08273)"><g id="g3194" transform="translate(7.6232036,7.2674773)" style="fill:#002330;fill-opacity:1"><g id="g150" transform="matrix(0.35277777,0,0,-0.35277777,7.8283983,207.97107)" style="fill:#002330;fill-opacity:1"><g aria-label="P" transform="scale(1,-1)" id="text5232" style="font-weight:bold;font-size:6.93185px;line-height:1.25;font-family:'Kumbh Sans';-inkscape-font-specification:'Kumbh Sans Bold';stroke-width:0.173296"><g id="g772" transform="matrix(1,0,0,-1,13.993224,18.451819)"></g><g id="g776" transform="matrix(1,0,0,-1,19.493224,18.451819)"></g><g id="g780" transform="matrix(1,0,0,-1,9.8154244,10.427919)" style="fill:#002330;fill-opacity:1"></g><g aria-label="40" id="text30124" style="font-size:5.82907px;stroke-width:0.0252539"><path id="path48693" d="m 15.602952,16.043951 q -0.478166,0 -0.828252,-0.259007 -0.350085,-0.261853 -0.543629,-0.757096 -0.190697,-0.498089 -0.190697,-1.2068 0,-0.705864 0.190697,-1.201107 0.193544,-0.495243 0.543629,-0.75425 0.350086,-0.261852 0.828252,-0.261852 0.481012,0 0.831098,0.261852 0.350086,0.259007 0.540783,0.75425 0.193543,0.495243 0.193543,1.201107 0,0.708711 -0.190697,1.2068 -0.190697,0.495243 -0.543629,0.757096 -0.350086,0.259007 -0.831098,0.259007 z m 0,-0.765635 q 0.318777,0 0.492397,-0.381394 0.176466,-0.381395 0.176466,-1.073027 0,-0.694479 -0.176466,-1.073027 -0.17362,-0.381395 -0.492397,-0.381395 -0.313085,0 -0.489551,0.381395 -0.176466,0.378548 -0.176466,1.073027 0,0.691632 0.176466,1.073027 0.176466,0.381394 0.489551,0.381394 z m -2.402214,0.680248 H 12.3241 v -0.870945 h -2.054975 v -0.668863 l 2.057821,-2.729531 h 0.873792 v 2.632759 h 0.520859 v 0.765635 h -0.520859 z m -2.123285,-1.63658 H 12.3241 V 12.668327 Z M 9.8154244,10.427919 c -0.812,0 -1.626,-0.265 -2.217,-0.792 -0.347,-0.312 -0.855,-0.495 -1.403,-0.512 -0.307,-0.009 -0.548,-0.265 -0.538,-0.572 0.01,-0.307 0.267,-0.56 0.573,-0.539 0.816,0.025 1.563,0.304 2.1,0.785 0.756,0.676 2.2189996,0.676 2.9659996,0.008 1.187,-1.064 3.262,-1.064 4.444,-0.004 0.749,0.67 2.214,0.67 2.96,0.002 0.645,-0.579 1.616,-0.869 2.595,-0.77 0.306,0.031 0.53,0.303 0.499,0.608 -0.031,0.306 -0.307,0.533 -0.608,0.498 -0.666,-0.065 -1.333,0.122 -1.744,0.492 -1.184,1.06 -3.26,1.06 -4.441,0 -0.749,-0.67 -2.213,-0.67 -2.959,-0.002 -0.594,0.532 -1.411,0.798 -2.2269996,0.798 m 4.1777996,8.0239 h -5.501 c -0.254,0 -0.475,-0.171 -0.538,-0.417 l -2.876,-11.164 c -0.076,-0.297 0.102,-0.6 0.4,-0.677 0.295,-0.075 0.601,0.102 0.677,0.4 l 2.768,10.746 h 5.07 c 0.307,0 0.556,0.249 0.556,0.556 0,0.307 -0.249,0.556 -0.556,0.556 m 5.5,0 h -5.5 c -0.308,0 -0.557,-0.249 -0.557,-0.556 0,-0.307 0.249,-0.556 0.557,-0.556 h 5.069 l 2.768,-10.746 c 0.076,-0.298 0.386,-0.475 0.677,-0.4 0.298,0.077 0.476,0.38 0.4,0.677 l -2.875,11.164 c -0.063,0.246 -0.285,0.417 -0.539,0.417"></path></g></g></g></g></g></svg> 