<?xml version="1.0" encoding="UTF-8" standalone="no"?> <!-- Created with Inkscape (http://www.inkscape.org/) --> <svg xmlns="http://www.w3.org/2000/svg" xmlns:svg="http://www.w3.org/2000/svg" width="7mm" height="7mm" viewBox="0 0 7 7" version="1.1" id="svg1875"><defs id="defs1872"></defs><g id="layer1" transform="translate(-16.887924,-216.08273)"><g id="g3013" transform="translate(0,4.5995219)"><g id="g138" transform="matrix(0.35277777,0,0,-0.35277777,17.904514,216.61604)" style="fill:#002330;fill-opacity:1"><path d="M 0,0 H 14.238 L 13.202,4.048 H 5.411 C 2.478,4.048 0.711,1.369 0,0 M 14.986,-1.161 H -0.907 c -0.19,0 -0.368,0.094 -0.477,0.25 -0.108,0.155 -0.134,0.355 -0.067,0.533 0.085,0.229 2.132,5.587 6.862,5.587 h 7.493 L 11.868,9.257 H 4.344 c -0.321,0 -0.581,0.26 -0.581,0.58 0,0.321 0.26,0.581 0.581,0.581 h 7.974 c 0.266,0 0.497,-0.18 0.563,-0.437 l 2.668,-10.418 c 0.044,-0.172 0.006,-0.358 -0.104,-0.5 -0.11,-0.141 -0.279,-0.224 -0.459,-0.224" style="fill:#002330;fill-opacity:1;fill-rule:nonzero;stroke:none" id="path140"></path></g><g id="g142" transform="matrix(0.35277777,0,0,-0.35277777,20.642982,215.90188)" style="fill:#002330;fill-opacity:1"><path d="m 0,0 c 0,-0.4 -0.324,-0.724 -0.723,-0.724 -0.4,0 -0.723,0.324 -0.723,0.724 0,0.399 0.323,0.723 0.723,0.723 C -0.324,0.723 0,0.399 0,0" style="fill:#002330;fill-opacity:1;fill-rule:nonzero;stroke:none" id="path144"></path></g></g></g></svg> 