<?xml version="1.0" encoding="UTF-8" standalone="no"?>
<!-- Created with Inkscape (http://www.inkscape.org/) -->

<svg
   version="1.1"
   id="svg2"
   xml:space="preserve"
   width="581.65027"
   height="350.59641"
   viewBox="0 0 581.65027 350.59641"
   sodipodi:docname="cod.svg"
   inkscape:version="1.1.1 (1:1.1+202109281949+c3084ef5ed)"
   xmlns:inkscape="http://www.inkscape.org/namespaces/inkscape"
   xmlns:sodipodi="http://sodipodi.sourceforge.net/DTD/sodipodi-0.dtd"
   xmlns="http://www.w3.org/2000/svg"
   xmlns:svg="http://www.w3.org/2000/svg"><defs
     id="defs6"><clipPath
       clipPathUnits="userSpaceOnUse"
       id="clipPath18"><path
         d="M 0,371.311 H 539.622 V 0 H 0 Z"
         id="path16" /></clipPath><pattern
       id="EMFhbasepattern"
       patternUnits="userSpaceOnUse"
       width="6"
       height="6"
       x="0"
       y="0" /></defs><sodipodi:namedview
     id="namedview4"
     pagecolor="#505050"
     bordercolor="#ffffff"
     borderopacity="1"
     inkscape:pageshadow="0"
     inkscape:pageopacity="0"
     inkscape:pagecheckerboard="1"
     showgrid="false"
     fit-margin-top="0"
     fit-margin-left="0"
     fit-margin-right="0"
     fit-margin-bottom="0"
     inkscape:zoom="0.7826886"
     inkscape:cx="142.45768"
     inkscape:cy="287.47065"
     inkscape:window-width="1920"
     inkscape:window-height="1052"
     inkscape:window-x="1366"
     inkscape:window-y="0"
     inkscape:window-maximized="1"
     inkscape:current-layer="g8" /><g
     id="g8"
     inkscape:groupmode="layer"
     inkscape:label="InPost_logotype_2019_lift_claim_RGB"
     transform="matrix(1.3333333,0,0,-1.3333333,-55.266265,423.38759)"><path
       d="M 312.76598,271.59809 H 208.67643 A 21.644504,21.644504 0 0 1 187.24624,250.1679 v -79.59789 a 27.553116,27.553116 0 0 1 20.24235,-25.55704 l 68.32561,-16.04815 a 17.934018,17.934018 0 0 1 15.22769,2.9941 17.529905,17.529905 0 0 1 6.4168,14.11943 v 59.34329 a 26.108108,26.108108 0 0 1 -19.09737,25.10395 l -66.28054,18.2769 a 4.5931206,4.5931206 0 1 0 2.44916,8.85373 l 21.63838,-5.96983 h 0.0734 76.5242 a 4.5921904,4.5921904 0 1 0 0,-9.18438 h -32.05346 a 1.5307286,1.5307286 0 0 1 -0.41065,-3.00634 l 0.52657,-0.14695 a 35.016948,35.016948 0 0 0 17.75645,-11.59681 1.5552202,1.5552202 0 0 1 1.18785,-0.55678 h 12.99283 a 4.5921884,4.5921884 0 0 0 0,-9.18436 h -6.35559 a 1.5246058,1.5246058 0 0 1 -1.45726,-2.0022 34.343427,34.343427 0 0 0 1.72055,-10.59876 v -42.50527 a 1.5307286,1.5307286 0 0 1 1.53072,-1.53073 h 4.56158 a 21.430201,21.430201 0 0 1 21.43019,21.4302 v 67.35206 a 21.430201,21.430201 0 0 1 -21.43019,21.44244 z m -30.61458,-91.8437 a 12.245828,12.245828 0 1 0 -12.24582,12.24583 12.245828,12.245828 0 0 0 12.24582,-12.24583 z"
       id="path853"
       style="fill:#a7dce5;fill-opacity:1;stroke-width:6.12292" /></g></svg>
