<?xml version="1.0" encoding="UTF-8" standalone="no"?>
<!-- Created with Inkscape (http://www.inkscape.org/) -->

<svg
   version="1.1"
   id="svg2"
   xml:space="preserve"
   width="581.65027"
   height="350.59641"
   viewBox="0 0 581.65027 350.59641"
   sodipodi:docname="dpd.svg"
   inkscape:version="1.1.1 (1:1.1+202109281949+c3084ef5ed)"
   xmlns:inkscape="http://www.inkscape.org/namespaces/inkscape"
   xmlns:sodipodi="http://sodipodi.sourceforge.net/DTD/sodipodi-0.dtd"
   xmlns="http://www.w3.org/2000/svg"
   xmlns:svg="http://www.w3.org/2000/svg"><defs
     id="defs6"><clipPath
       clipPathUnits="userSpaceOnUse"
       id="clipPath18"><path
         d="M 0,371.311 H 539.622 V 0 H 0 Z"
         id="path16" /></clipPath><pattern
       id="EMFhbasepattern"
       patternUnits="userSpaceOnUse"
       width="6"
       height="6"
       x="0"
       y="0" /></defs><sodipodi:namedview
     id="namedview4"
     pagecolor="#505050"
     bordercolor="#ffffff"
     borderopacity="1"
     inkscape:pageshadow="0"
     inkscape:pageopacity="0"
     inkscape:pagecheckerboard="1"
     showgrid="false"
     fit-margin-top="0"
     fit-margin-left="0"
     fit-margin-right="0"
     fit-margin-bottom="0"
     inkscape:zoom="1.5653772"
     inkscape:cx="257.12653"
     inkscape:cy="102.21179"
     inkscape:window-width="1920"
     inkscape:window-height="1052"
     inkscape:window-x="1366"
     inkscape:window-y="0"
     inkscape:window-maximized="1"
     inkscape:current-layer="g8" /><g
     id="g8"
     inkscape:groupmode="layer"
     inkscape:label="InPost_logotype_2019_lift_claim_RGB"
     transform="matrix(1.3333333,0,0,-1.3333333,-55.266265,423.38759)"><g
       id="g1573"
       transform="matrix(1.2126803,0,0,1.2126803,-246.7601,-300.20773)"><g
         id="g1470"
         transform="matrix(6.9875038,0,0,-6.9875038,246.35792,483.43054)"><path
           style="fill:#3f3f42;fill-opacity:1;fill-rule:evenodd;stroke:none"
           d="m 32.17305,16.573387 c -0.910167,0.254 -2.0955,0.359833 -3.1115,0.359833 -2.645749,0 -4.381388,-1.375833 -4.381388,-3.894638 0,-2.391833 1.629806,-3.9369718 4.000388,-3.9369718 0.529166,0 1.100666,0.0635 1.439333,0.2328334 V 5.8631102 h 2.053167 z m -2.053167,-5.460972 c -0.3175,-0.148166 -0.762,-0.232833 -1.27,-0.232833 -1.248749,0 -2.074249,0.762 -2.074249,2.0955 0,1.418138 0.889,2.222472 2.349416,2.222472 0.254,0 0.656166,0 0.994833,-0.08467 z m 18.923,5.460972 c -0.910167,0.254 -2.0955,0.359833 -3.132667,0.359833 -2.624666,0 -4.3815,-1.375833 -4.3815,-3.894638 0,-2.391833 1.629834,-3.9369718 4.0005,-3.9369718 0.550334,0 1.100667,0.0635 1.439334,0.2328334 V 5.8631102 h 2.074333 z M 46.96855,11.112415 c -0.3175,-0.148166 -0.740834,-0.232833 -1.248834,-0.232833 -1.27,0 -2.0955,0.762 -2.0955,2.0955 0,1.418138 0.910167,2.222472 2.370667,2.222472 0.254,0 0.635,0 0.973667,-0.08467 z m -11.557,0 c 0.338666,-0.148166 0.8255,-0.1905 1.227666,-0.1905 1.27,0 2.137834,0.719667 2.137834,2.010834 0,1.523971 -0.973667,2.222471 -2.264834,2.243638 v 1.756833 h 0.105834 c 2.667,0 4.2545,-1.4605 4.2545,-4.063971 0,-2.370667 -1.693334,-3.7676388 -4.191,-3.7676388 -1.27,0 -2.518834,0.2963334 -3.344334,0.6349718 v 10.05411 h 2.074334 z m 0,0"
           id="path7"
           inkscape:connector-curvature="0" /><path
           style="fill:#dc0032;fill-opacity:1;fill-rule:evenodd;stroke:none"
           d="m 17.610524,4.4873051 h 0.02117 v 0 z"
           id="path9"
           inkscape:connector-curvature="0" /><path
           style="fill:#dc0032;fill-opacity:1;fill-rule:evenodd;stroke:none"
           d="m 17.102552,4.2121384 0.338639,0.381 0.1905,-0.1058333 z"
           id="path11"
           inkscape:connector-curvature="0" /><path
           style="fill:#dc0032;fill-opacity:1;fill-rule:evenodd;stroke:none"
           d="m 16.594552,3.9369718 0.656139,0.762 0.232833,-0.127 -0.254,-0.2963334 z"
           id="path13"
           inkscape:connector-curvature="0" /><path
           style="fill:#dc0032;fill-opacity:1;fill-rule:evenodd;stroke:none"
           d="m 16.065386,3.6618051 0.994833,1.143 0.232805,-0.127 -0.571472,-0.6773333 z"
           id="path15"
           inkscape:connector-curvature="0" /><path
           style="fill:#dc0032;fill-opacity:1;fill-rule:evenodd;stroke:none"
           d="m 15.557386,3.3866384 1.312333,1.524 0.232833,-0.127 -0.910166,-1.0583333 z m 2.518805,2.6881385 -0.148167,0.084667 0.148167,0.1693333 z"
           id="path17"
           inkscape:connector-curvature="0" /><path
           style="fill:#dc0032;fill-opacity:1;fill-rule:evenodd;stroke:none"
           d="m 15.049386,3.1114718 1.629833,1.905 0.232833,-0.127 -1.227666,-1.4393334 z m 2.942138,3.0056384 -0.232833,0.1481667 0.3175,0.381 V 6.2441102 l -0.08467,-0.127 z"
           id="path19"
           inkscape:connector-curvature="0" /><path
           style="fill:#dc0032;fill-opacity:1;fill-rule:evenodd;stroke:none"
           d="m 14.520219,2.8363051 1.9685,2.286 0.254,-0.127 -1.566333,-1.8203333 z m 3.280805,3.3866385 -0.232833,0.1481666 0.508,0.5926667 V 6.5616102 Z"
           id="path21"
           inkscape:connector-curvature="0" /><path
           style="fill:#dc0032;fill-opacity:1;fill-rule:evenodd;stroke:none"
           d="m 14.012219,2.5611469 2.307167,2.6669915 0.232833,-0.127 -1.905,-2.2013333 z m 3.598305,3.7887967 -0.232833,0.127 0.6985,0.8255 V 6.9002769 Z"
           id="path23"
           inkscape:connector-curvature="0" /><path
           style="fill:#dc0032;fill-opacity:1;fill-rule:evenodd;stroke:none"
           d="m 13.504219,2.2859831 2.624667,3.0479887 0.232833,-0.127 -2.2225,-2.5823249 z m 3.915805,4.1697938 -0.232833,0.127 0.889,1.0371667 V 7.2177769 Z"
           id="path25"
           inkscape:connector-curvature="0" /><path
           style="fill:#dc0032;fill-opacity:1;fill-rule:evenodd;stroke:none"
           d="m 12.97508,2.0108192 2.963306,3.4289859 0.232833,-0.127 -2.54,-2.963322 z m 4.254444,4.550791 -0.232805,0.127 1.079472,1.2488334 V 7.5352769 Z"
           id="path27"
           inkscape:connector-curvature="0" /><path
           style="fill:#dc0032;fill-opacity:1;fill-rule:evenodd;stroke:none"
           d="M 12.46708,1.7356526 15.747886,5.5668051 15.980719,5.4186384 13.10208,2.0743192 Z m 4.571972,4.931791 -0.232833,0.127 1.269972,1.4816666 V 7.8739436 Z"
           id="path29"
           inkscape:connector-curvature="0" /><path
           style="fill:#dc0032;fill-opacity:1;fill-rule:evenodd;stroke:none"
           d="M 11.937914,1.4604887 15.557386,5.6726384 15.790219,5.5244718 12.59408,1.7991526 Z m 4.931805,5.3127882 -0.254,0.127 1.460472,1.6933333 V 8.1914436 Z"
           id="path31"
           inkscape:connector-curvature="0" /><path
           style="fill:#dc0032;fill-opacity:1;fill-rule:evenodd;stroke:none"
           d="m 11.429914,1.1853249 3.936972,4.5931187 0.254,-0.1481385 -3.534806,-4.1063164 z m 5.249305,5.6937853 -0.232833,0.127 1.629805,1.9261667 V 8.5089436 Z"
           id="path33"
           inkscape:connector-curvature="0" /><path
           style="fill:#dc0032;fill-opacity:1;fill-rule:evenodd;stroke:none"
           d="M 10.921914,0.91016102 15.197552,5.8842769 15.430386,5.7361102 11.556914,1.2488249 Z m 5.566805,6.07478258 -0.232833,0.127 1.820305,2.1378333 V 8.8476102 Z"
           id="path35"
           inkscape:connector-curvature="0" /><path
           style="fill:#dc0032;fill-opacity:1;fill-rule:evenodd;stroke:none"
           d="M 10.392747,0.61382769 15.007052,5.9901102 15.239886,5.8419436 11.048914,0.9736582 Z m 5.905472,6.47694921 -0.232833,0.127 2.010805,2.3494718 V 9.1651102 Z"
           id="path37"
           inkscape:connector-curvature="0" /><path
           style="fill:#dc0032;fill-opacity:1;fill-rule:evenodd;stroke:none"
           d="m 9.8847471,0.33866384 4.9318049,5.75727976 0.232834,-0.127 -4.508472,-5.27044924 z m 6.2229719,6.85794636 -0.232833,0.127 2.201305,2.5823051 V 9.4826102 Z"
           id="path39"
           inkscape:connector-curvature="0" /><path
           style="fill:#dc0032;fill-opacity:1;fill-rule:evenodd;stroke:none"
           d="m 9.3767753,0.0846661 5.2492767,6.1171108 0.232834,-0.127 L 10.011747,0.42333051 9.3767753,0.0846661 c 0,0 0,0 0,0 z m 6.5404437,7.2177775 -0.232833,0.127 2.391805,2.7939714 V 9.8212487 Z"
           id="path41"
           inkscape:connector-curvature="0" /><path
           style="fill:#dc0032;fill-opacity:1;fill-rule:evenodd;stroke:none"
           d="m 9.0381087,0 c 0,0 0,0 0,0 l 5.3974433,6.3076102 0.232834,-0.127 -5.1646107,-6.03244466 -0.127,-0.06349944 C 9.270942,0.0211665 9.1651087,0 9.0381087,0 Z m 6.6886103,7.4082769 -0.232833,0.127 2.582305,3.0056381 v -0.402166 z"
           id="path43"
           inkscape:connector-curvature="0" /><path
           style="fill:#dc0032;fill-opacity:1;fill-rule:evenodd;stroke:none"
           d="m 9.0381087,0 c -0.084667,0 -0.1693334,0.0211665 -0.254,0.04233305 l 5.4609433,6.37111055 0.254,-0.127 L 9.1016087,0 c -0.021167,0 -0.042333,0 -0.0635,0 z m 6.5192773,7.5141102 -0.232834,0.127 2.751639,3.2384718 v -0.423333 z"
           id="path45"
           inkscape:connector-curvature="0" /><path
           style="fill:#dc0032;fill-opacity:1;fill-rule:evenodd;stroke:none"
           d="m 8.8476087,0.0211665 c -0.042333,0.02116655 -0.1058334,0.04233294 -0.127,0.0634996 l -0.127,0.06349944 5.4821103,6.37111136 0.232833,-0.127 z m 6.5192773,7.5987771 -0.232834,0.1481666 2.942139,3.4289718 v -0.402167 z"
           id="path47"
           inkscape:connector-curvature="0" /><path
           style="fill:#dc0032;fill-opacity:1;fill-rule:evenodd;stroke:none"
           d="m 8.635942,0.10583249 -0.2328333,0.12699915 5.4821103,6.39227856 0.232833,-0.127 z m 6.540444,7.61994441 -0.232834,0.1481667 3.132639,3.6406384 v -0.402167 z"
           id="path49"
           inkscape:connector-curvature="0" /><path
           style="fill:#dc0032;fill-opacity:1;fill-rule:evenodd;stroke:none"
           d="m 8.445442,0.21166497 -0.2328333,0.12699887 5.4821103,6.39227976 0.232833,-0.127 z m 6.540444,7.61994523 -0.232834,0.1481667 3.323139,3.8734721 v -0.402167 z"
           id="path51"
           inkscape:connector-curvature="0" /><path
           style="fill:#dc0032;fill-opacity:1;fill-rule:evenodd;stroke:none"
           d="m 8.254942,0.31749718 -0.2328333,0.127 5.4821103,6.39227972 0.232833,-0.127 z m 6.540444,7.61994642 -0.232834,0.1481666 3.513639,4.0851388 v -0.402167 z"
           id="path53"
           inkscape:connector-curvature="0" /><path
           style="fill:#dc0032;fill-opacity:1;fill-rule:evenodd;stroke:none"
           d="m 8.064442,0.42333051 -0.2328333,0.127 5.4821383,6.39227969 0.232805,-0.127 z m 6.540444,7.61994639 -0.232834,0.1481667 3.704139,4.2968054 v -0.402167 z"
           id="path55"
           inkscape:connector-curvature="0" /><path
           style="fill:#dc0032;fill-opacity:1;fill-rule:evenodd;stroke:none"
           d="m 7.873942,0.52916384 -0.2328333,0.12699718 5.4821383,6.39228258 0.232805,-0.127 z m 6.56161,7.61994636 -0.232833,0.1481667 3.873472,4.5296381 v -0.402166 z"
           id="path57"
           inkscape:connector-curvature="0" /><path
           style="fill:#dc0032;fill-opacity:1;fill-rule:evenodd;stroke:none"
           d="m 7.683442,0.61382769 -0.2328333,0.14816667 5.5033053,6.39228254 0.232833,-0.127 z m 6.56161,7.66228251 -0.232833,0.127 4.063972,4.7413048 v -0.402166 z"
           id="path59"
           inkscape:connector-curvature="0" /><path
           style="fill:#dc0032;fill-opacity:1;fill-rule:evenodd;stroke:none"
           d="m 7.492942,0.71966102 -0.2328333,0.127 5.5033053,6.41344918 0.232833,-0.127 z m 6.56161,7.66228258 -0.232833,0.127 4.254472,4.9741104 v -0.423305 z"
           id="path61"
           inkscape:connector-curvature="0" /><path
           style="fill:#dc0032;fill-opacity:1;fill-rule:evenodd;stroke:none"
           d="m 7.302442,0.82549436 -0.2328333,0.127 5.5033053,6.43461584 0.232833,-0.1481666 z m 6.56161,7.66228254 -0.232833,0.127 4.444972,5.1857771 v -0.402167 z"
           id="path63"
           inkscape:connector-curvature="0" /><path
           style="fill:#dc0032;fill-opacity:1;fill-rule:evenodd;stroke:none"
           d="M 7.111942,0.93132769 6.8791087,1.0583249 12.382414,7.4929436 12.615247,7.3447769 Z m 6.56161,7.66228251 -0.232833,0.127 4.635472,5.3974438 v -0.402167 z"
           id="path65"
           inkscape:connector-curvature="0" /><path
           style="fill:#dc0032;fill-opacity:1;fill-rule:evenodd;stroke:none"
           d="m 6.921442,1.0371582 -0.2328333,0.127 5.5033053,6.4346187 0.232833,-0.1481667 z m 6.56161,7.6622854 -0.232805,0.127 4.825944,5.6302764 v -0.423333 z"
           id="path67"
           inkscape:connector-curvature="0" /><path
           style="fill:#dc0032;fill-opacity:1;fill-rule:evenodd;stroke:none"
           d="m 6.730942,1.1429915 -0.2328333,0.127 5.5033053,6.4346187 0.232833,-0.1481666 z m 6.582805,7.6622854 -0.232833,0.127 4.995277,5.8419431 v -0.402166 z"
           id="path69"
           inkscape:connector-curvature="0" /><path
           style="fill:#dc0032;fill-opacity:1;fill-rule:evenodd;stroke:none"
           d="m 6.540442,1.2276582 -0.254,0.1269972 5.545638,6.4557882 0.232834,-0.1481667 z m 6.582805,7.683452 -0.232833,0.127 5.185777,6.0536098 v -0.402166 z"
           id="path71"
           inkscape:connector-curvature="0" /><path
           style="fill:#dc0032;fill-opacity:1;fill-rule:evenodd;stroke:none"
           d="m 6.349942,1.3334915 -0.254,0.1269972 5.566805,6.4769549 c 0.02117,-0.042333 0.04233,-0.0635 0.08467,-0.084667 l 0.127,-0.084667 -5.524472,-6.4346187 z m 6.582805,7.6834521 -0.232833,0.127 5.333943,6.2229434 c 0.02117,-0.0635 0.04233,-0.127 0.04233,-0.1905 V 15.007054 L 12.932743,9.0169436 Z"
           id="path73"
           inkscape:connector-curvature="0" /><path
           style="fill:#dc0032;fill-opacity:1;fill-rule:evenodd;stroke:none"
           d="m 6.159442,1.439322 -0.254,0.127 5.693805,6.6251216 v -0.084667 c 0,-0.0635 0.04233,-0.1481667 0.08467,-0.2116667 z m 6.582805,7.6834549 -0.169333,0.1058333 c -0.02117,0 -0.04233,0.021167 -0.0635,0.021167 l 5.41861,6.3287768 c 0.0635,-0.08467 0.105833,-0.169334 0.127,-0.254 z"
           id="path75"
           inkscape:connector-curvature="0" /><path
           style="fill:#dc0032;fill-opacity:1;fill-rule:evenodd;stroke:none"
           d="m 5.968942,1.5451554 -0.2539718,0.127 5.8842768,6.8579548 V 8.1067769 Z m 6.180638,7.5987882 5.630277,6.5827764 c 0.0635,-0.04233 0.127,-0.127 0.1905,-0.1905 l -5.41861,-6.3076098 c -0.08467,0.042333 -0.211667,0.042333 -0.296333,0 z"
           id="path77"
           inkscape:connector-curvature="0" /><path
           style="fill:#dc0032;fill-opacity:1;fill-rule:evenodd;stroke:none"
           d="M 5.778442,1.6509887 5.5244702,1.7779859 17.589357,15.832554 l 0.169334,-0.08467 c 0.02117,-0.02117 0.04233,-0.04233 0.0635,-0.0635 L 12.27658,9.2286102 c 0,0 -0.02117,0 -0.02117,0 L 11.76858,8.9322769 c -0.04233,-0.021167 -0.0635,-0.0635 -0.105833,-0.1058333 0,0 0,0 0,0 -0.04233,-0.0635 -0.04233,-0.1058334 -0.0635,-0.1481667 V 8.4454436 Z"
           id="path79"
           inkscape:connector-curvature="0" /><path
           style="fill:#dc0032;fill-opacity:1;fill-rule:evenodd;stroke:none"
           d="m 5.5879702,1.7568192 -0.254,0.127 12.0648868,14.0545678 0.232834,-0.127 z"
           id="path81"
           inkscape:connector-curvature="0" /><path
           style="fill:#dc0032;fill-opacity:1;fill-rule:evenodd;stroke:none"
           d="m 5.3974702,1.8414859 -0.254,0.127 12.0860538,14.0757341 0.232833,-0.127 z"
           id="path83"
           inkscape:connector-curvature="0" /><path
           style="fill:#dc0032;fill-opacity:1;fill-rule:evenodd;stroke:none"
           d="m 5.2069702,1.9473192 -0.254,0.127 12.0860818,14.0757348 0.232805,-0.127 z"
           id="path85"
           inkscape:connector-curvature="0" /><path
           style="fill:#dc0032;fill-opacity:1;fill-rule:evenodd;stroke:none"
           d="m 5.0164702,2.0531526 -0.254,0.1269971 12.0860818,14.0757373 0.232834,-0.127 z"
           id="path87"
           inkscape:connector-curvature="0" /><path
           style="fill:#dc0032;fill-opacity:1;fill-rule:evenodd;stroke:none"
           d="m 4.8048036,2.1589831 -0.2328334,0.127 12.0860818,14.0969039 0.232834,-0.148167 z"
           id="path89"
           inkscape:connector-curvature="0" /><path
           style="fill:#dc0032;fill-opacity:1;fill-rule:evenodd;stroke:none"
           d="m 4.6143036,2.2648164 -0.2328334,0.127 12.0860818,14.0969036 0.232834,-0.148166 z"
           id="path91"
           inkscape:connector-curvature="0" /><path
           style="fill:#dc0032;fill-opacity:1;fill-rule:evenodd;stroke:none"
           d="M 4.4238036,2.3706497 4.1909702,2.4976469 16.298219,16.594554 16.531052,16.446387 Z"
           id="path93"
           inkscape:connector-curvature="0" /><path
           style="fill:#dc0032;fill-opacity:1;fill-rule:evenodd;stroke:none"
           d="M 4.2333036,2.4553164 4.0004702,2.5823136 16.107719,16.700387 16.340552,16.55222 Z"
           id="path95"
           inkscape:connector-curvature="0" /><path
           style="fill:#dc0032;fill-opacity:1;fill-rule:evenodd;stroke:none"
           d="m 4.0428036,2.5611469 -0.2328334,0.127 12.1072488,14.1180731 0.232833,-0.127 z"
           id="path97"
           inkscape:connector-curvature="0" /><path
           style="fill:#dc0032;fill-opacity:1;fill-rule:evenodd;stroke:none"
           d="m 3.8523036,2.6669802 -0.2328334,0.127 5.8843051,6.8579351 0.1904718,0.127 c 0.084667,0.042333 0.1693334,0.1481667 0.1693334,0.2539997 v 0.02117 l 5.8631385,6.857972 0.232833,-0.127 z"
           id="path99"
           inkscape:connector-curvature="0" /><path
           style="fill:#dc0032;fill-opacity:1;fill-rule:evenodd;stroke:none"
           d="M 3.6618036,2.7728136 3.4289702,2.8998051 8.953442,9.3556102 9.6519138,9.736582 Z m 6.1806102,7.1966017 c 0,0.021167 0.021167,0.042334 0.021167,0.0635 v 0.359834 l 5.6726382,6.625138 0.232833,-0.127 z"
           id="path101"
           inkscape:connector-curvature="0" /><path
           style="fill:#dc0032;fill-opacity:1;fill-rule:evenodd;stroke:none"
           d="m 3.4713036,2.8786384 -0.2328334,0.127 5.1646385,6.0324718 0.6985,0.381 z m 6.3922769,7.4294436 v 0.402167 l 5.5033055,6.413471 0.232833,-0.127 z"
           id="path103"
           inkscape:connector-curvature="0" /><path
           style="fill:#dc0032;fill-opacity:1;fill-rule:evenodd;stroke:none"
           d="m 3.2808036,2.9844718 -0.2328334,0.127 4.8259718,5.6091384 0.6773333,0.381 z m 6.5827769,7.6411102 v 0.423333 l 5.3128055,6.180611 0.232833,-0.126972 z"
           id="path105"
           inkscape:connector-curvature="0" /><path
           style="fill:#dc0032;fill-opacity:1;fill-rule:evenodd;stroke:none"
           d="m 3.0903036,3.0691384 -0.2328334,0.127 4.4661385,5.2069718 0.6773333,0.4021667 z m 6.7732769,7.8951106 v 0.402166 l 5.1223055,5.968944 0.232833,-0.127 z"
           id="path107"
           inkscape:connector-curvature="0" /><path
           style="fill:#dc0032;fill-opacity:1;fill-rule:evenodd;stroke:none"
           d="m 2.8998036,3.1749718 -0.2328249,0.127 4.1062966,4.7836384 0.6773334,0.4021667 z m 6.9637769,8.1067772 v 0.402166 l 4.9318055,5.757277 0.232833,-0.127 z"
           id="path109"
           inkscape:connector-curvature="0" /><path
           style="fill:#dc0032;fill-opacity:1;fill-rule:evenodd;stroke:none"
           d="m 2.709312,3.2808051 -0.2328305,0.127 3.7464605,4.3814718 0.6773333,0.381 z m 7.1542685,8.3184439 v 0.423333 l 4.7413055,5.54561 0.232833,-0.148166 z"
           id="path111"
           inkscape:connector-curvature="0" /><path
           style="fill:#dc0032;fill-opacity:1;fill-rule:evenodd;stroke:none"
           d="m 2.518812,3.3866384 -0.2328305,0.127 3.3866554,3.9581385 0.6773051,0.381 z m 7.3447685,8.5512766 v 0.402167 l 4.5719715,5.333944 0.232834,-0.148167 z"
           id="path113"
           inkscape:connector-curvature="0" /><path
           style="fill:#dc0032;fill-opacity:1;fill-rule:evenodd;stroke:none"
           d="m 2.3283149,3.4924718 -0.2328306,0.127 3.0268193,3.5348051 0.6984717,0.381 z m 7.5352656,8.7629432 v 0.402167 l 4.3814715,5.122277 0.232834,-0.148167 z"
           id="path115"
           inkscape:connector-curvature="0" /><path
           style="fill:#db0032;fill-opacity:1;fill-rule:evenodd;stroke:none"
           d="m 2.1378149,3.5983051 -0.2328306,0.127 2.6669859,3.1114718 0.6985,0.4021667 z m 5.5456271,6.8579439 0.5503333,0.635 v -0.232834 c 0,-0.04233 -0.042333,-0.105833 -0.084667,-0.127 z m 2.1801385,2.116666 v 0.423334 l 4.1909715,4.889443 0.232834,-0.148166 z"
           id="path117"
           inkscape:connector-curvature="0" /><path
           style="fill:#dc0032;fill-opacity:1;fill-rule:evenodd;stroke:none"
           d="m 1.9473177,3.6829718 -0.2328305,0.127 2.3071497,2.7093051 0.6985,0.4021667 z m 5.185791,6.4557772 1.1006666,1.27 V 11.006582 L 7.8316087,10.540915 Z m 2.7304718,2.772833 v 0.402167 l 4.0004715,4.677777 0.232834,-0.127 z"
           id="path119"
           inkscape:connector-curvature="0" /><path
           style="fill:#dc0032;fill-opacity:1;fill-rule:evenodd;stroke:none"
           d="m 1.7568177,3.7888051 -0.2328305,0.127 1.968483,2.3071385 0.6773334,0.381 z m 4.8259576,6.0536102 1.651,1.9049997 v -0.402166 l -0.9525,-1.121834 z m 3.2808052,3.3866667 v 0.402138 l 3.8099715,4.466139 0.232834,-0.127 z"
           id="path121"
           inkscape:connector-curvature="0" /><path
           style="fill:#dc0032;fill-opacity:1;fill-rule:evenodd;stroke:none"
           d="m 1.5663205,3.8946384 -0.2328305,0.127 1.6086469,1.8838052 0.6773333,0.381 z M 6.0536087,9.5249436 8.2337753,12.064915 V 11.662749 L 6.730942,9.9059153 Z M 9.8635805,13.56772 v 0.402167 l 3.6406385,4.233305 0.232833,-0.127 z"
           id="path123"
           inkscape:connector-curvature="0" /><path
           style="fill:#dc0032;fill-opacity:1;fill-rule:evenodd;stroke:none"
           d="m 1.3758205,4.0004718 -0.2328305,0.127 1.2488249,1.4605 0.677322,0.3809718 z M 5.5033036,9.2074436 8.2337753,12.382415 V 11.980249 L 6.1806087,9.609582 Z M 9.8635805,13.88522 v 0.402167 l 3.4501665,4.021639 0.232805,-0.127 z"
           id="path125"
           inkscape:connector-curvature="0" /><path
           style="fill:#dc0032;fill-opacity:1;fill-rule:evenodd;stroke:none"
           d="m 1.1853233,4.1063051 -0.23283049,0.127 L 1.8414843,5.2704718 2.518812,5.6726384 Z M 4.9529702,8.8899436 8.2337753,12.721082 V 12.318915 L 5.6303036,9.2921102 Z M 9.8635805,14.20272 v 0.402167 l 3.2596665,3.809972 0.232805,-0.127 z"
           id="path127"
           inkscape:connector-curvature="0" /><path
           style="fill:#dc0032;fill-opacity:1;fill-rule:evenodd;stroke:none"
           d="m 0.99482332,4.2121384 -0.23283051,0.127 L 1.2911567,4.9529718 1.989651,5.3551384 Z M 4.4026369,8.5936102 8.2337753,13.038582 V 12.636415 L 5.0799702,8.9746102 Z m 5.4609436,5.9477768 v 0.402167 l 3.0691665,3.577138 0.232833,-0.127 z"
           id="path129"
           inkscape:connector-curvature="0" /><path
           style="fill:#dc0032;fill-opacity:1;fill-rule:evenodd;stroke:none"
           d="m 0.80432614,4.2968051 -0.25399717,0.127 0.19049717,0.2328333 0.69849436,0.381 z M 3.8523036,8.2761102 8.2337753,13.37722 V 12.953915 L 4.5508036,8.6571102 Z m 6.0112769,6.5827768 v 0.402167 l 2.8786665,3.386638 0.232833,-0.148166 z"
           id="path131"
           inkscape:connector-curvature="0" /><path
           style="fill:#dc0032;fill-opacity:1;fill-rule:evenodd;stroke:none"
           d="M 0.61382614,4.4026384 0.4656623,4.4873054 0.88899281,4.7201387 Z M 3.3019702,7.9586102 8.2337753,13.69472 V 13.292582 L 4.0004702,8.3607769 Z m 6.5616103,7.2177768 v 0.423333 l 2.7093335,3.153806 0.232833,-0.148167 z"
           id="path133"
           inkscape:connector-curvature="0" /><path
           style="fill:#dc0032;fill-opacity:1;fill-rule:evenodd;stroke:none"
           d="M 2.772812,7.6411102 8.2337753,14.01222 V 13.610054 L 3.4501369,8.0432769 Z m 7.0907685,7.8739438 v 0.402166 l 2.5188335,2.942139 0.232833,-0.148167 z"
           id="path135"
           inkscape:connector-curvature="0" /><path
           style="fill:#dc0032;fill-opacity:1;fill-rule:evenodd;stroke:none"
           d="M 2.2224815,7.3447769 8.2337753,14.350887 V 13.927554 L 2.8998036,7.7257769 Z m 7.641099,8.4877771 v 0.402166 l 2.3283335,2.730472 0.232833,-0.148166 z"
           id="path137"
           inkscape:connector-curvature="0" /><path
           style="fill:#dc0032;fill-opacity:1;fill-rule:evenodd;stroke:none"
           d="M 1.6721538,7.0272769 8.2337753,14.668387 V 14.26622 L 2.3494815,7.4082769 Z m 8.1914267,9.1227771 v 0.423333 l 2.1378335,2.497639 0.232833,-0.127 z"
           id="path139"
           inkscape:connector-curvature="0" /><path
           style="fill:#db0032;fill-opacity:1;fill-rule:evenodd;stroke:none"
           d="m 1.1218233,6.7097769 7.111952,8.2761101 V 14.58372 L 1.799151,7.1119436 Z M 9.8635805,16.48872 v 0.402167 l 1.9473335,2.285972 0.232833,-0.127 z"
           id="path141"
           inkscape:connector-curvature="0" /><path
           style="fill:#da0032;fill-opacity:1;fill-rule:evenodd;stroke:none"
           d="M 0.57149563,6.3922769 8.2337753,15.324554 V 14.922387 L 1.2488233,6.7944436 Z M 9.8635805,16.80622 v 0.402139 l 1.7779995,2.074333 0.232834,-0.127 z"
           id="path143"
           inkscape:connector-curvature="0" /><path
           style="fill:#d90032;fill-opacity:1;fill-rule:evenodd;stroke:none"
           d="M 0.02116495,6.0959436 8.2337753,15.642054 V 15.239887 L 0.71965948,6.4769436 Z M 9.8635805,17.12372 v 0.423306 l 1.5874995,1.8415 0.232834,-0.127 z"
           id="path145"
           inkscape:connector-curvature="0" /><path
           style="fill:#d80032;fill-opacity:1;fill-rule:evenodd;stroke:none"
           d="M -1.5455082e-6,6.0747769 V 6.3711102 L 8.2337753,15.959554 V 15.557387 L 0.16933066,6.1594436 Z M 9.8635805,17.462359 v 0.254 c 0,0.04233 -0.021167,0.08467 -0.042333,0.105833 l 1.4393325,1.672167 0.232834,-0.127 z"
           id="path147"
           inkscape:connector-curvature="0" /><path
           style="fill:#d70032;fill-opacity:1;fill-rule:evenodd;stroke:none"
           d="M -1.5455082e-6,6.2864436 V 6.7097769 L 8.2337753,16.29822 V 15.896054 Z M 9.8424138,17.779859 c -0.021167,0.08467 -0.084667,0.169333 -0.1481667,0.1905 l -0.021167,0.02117 1.3969999,1.608666 0.232834,-0.127 -1.4605006,-1.693333 z"
           id="path149"
           inkscape:connector-curvature="0" /><path
           style="fill:#d60032;fill-opacity:1;fill-rule:evenodd;stroke:none"
           d="M -1.5455082e-6,6.6251102 V 7.0272769 L 8.2337753,16.61572 V 16.213554 Z M 9.7154138,17.949192 c 0,0.02117 0,0.02117 -0.021167,0.02117 l -0.2116384,0.127 1.3969716,1.608667 0.232834,-0.127 -1.3970005,-1.629834 z"
           id="path151"
           inkscape:connector-curvature="0" /><path
           style="fill:#d50032;fill-opacity:1;fill-rule:evenodd;stroke:none"
           d="M -1.5455082e-6,6.9426102 V 7.3447769 L 8.2337753,16.93322 V 16.531054 Z M 9.5460805,18.055026 9.2921087,18.203192 10.710247,19.833026 10.94308,19.684859 Z"
           id="path153"
           inkscape:connector-curvature="0" /><path
           style="fill:#d40032;fill-opacity:1;fill-rule:evenodd;stroke:none"
           d="M -1.5455082e-6,7.2812769 V 7.6834436 L 8.2337753,17.271859 V 16.86972 Z M 9.3556087,18.160859 9.207442,18.245526 c -0.042333,0.02117 -0.084667,0.02117 -0.127,0.02117 l 1.439305,1.672167 0.232833,-0.148167 -1.3969713,-1.629833 z"
           id="path155"
           inkscape:connector-curvature="0" /><path
           style="fill:#d30032;fill-opacity:1;fill-rule:evenodd;stroke:none"
           d="M -1.5455082e-6,7.5987769 V 8.0009436 L 8.2337753,17.589359 V 17.187192 Z M 8.699442,18.160859 10.329247,20.044692 10.56208,19.896526 9.143942,18.266692 c -0.021167,0 -0.0635,0.02117 -0.084667,0.02117 H 9.038108 c -0.0635,0 -0.1058334,-0.02117 -0.1481667,-0.04233 l -0.1905,-0.08467 z"
           id="path157"
           inkscape:connector-curvature="0" /><path
           style="fill:#d20032;fill-opacity:1;fill-rule:evenodd;stroke:none"
           d="M -1.5455082e-6,7.9162769 V 8.3396102 L 10.138747,20.150526 l 0.232833,-0.148167 -1.5239713,-1.778 -0.4656667,-0.254 c -0.084667,-0.04233 -0.1481667,-0.148167 -0.1481667,-0.254 v -0.211667 z"
           id="path159"
           inkscape:connector-curvature="0" /><path
           style="fill:#d10032;fill-opacity:1;fill-rule:evenodd;stroke:none"
           d="M -1.5455082e-6,8.2549436 V 8.6571102 L 9.9482471,20.256359 l 0.2328329,-0.127 z"
           id="path161"
           inkscape:connector-curvature="0" /><path
           style="fill:#d00032;fill-opacity:1;fill-rule:evenodd;stroke:none"
           d="M -1.5455082e-6,8.5724436 V 8.9746102 L 9.7577471,20.362192 l 0.2328334,-0.127 z"
           id="path163"
           inkscape:connector-curvature="0" /><path
           style="fill:#cf0032;fill-opacity:1;fill-rule:evenodd;stroke:none"
           d="M -1.5455082e-6,8.8899436 V 9.3132769 L 9.5884138,20.468026 l 0.2328333,-0.127 z"
           id="path165"
           inkscape:connector-curvature="0" /><path
           style="fill:#ce0032;fill-opacity:1;fill-rule:evenodd;stroke:none"
           d="M -1.5455082e-6,9.2286102 V 9.6307487 L 9.397942,20.573859 l 0.2328051,-0.127 z"
           id="path167"
           inkscape:connector-curvature="0" /><path
           style="fill:#cd0032;fill-opacity:1;fill-rule:evenodd;stroke:none"
           d="M -1.5455082e-6,9.546082 V 9.9482487 L 9.1862753,20.658526 c 0.0635,-0.02117 0.127,-0.04233 0.1905,-0.0635 l 0.0635,-0.04233 z"
           id="path169"
           inkscape:connector-curvature="0" /><path
           style="fill:#cc0032;fill-opacity:1;fill-rule:evenodd;stroke:none"
           d="m -1.5455082e-6,9.863582 v 0.423333 L 8.9111087,20.658526 c 0.042333,0 0.084667,0 0.127,0 0.0635,0 0.127,0 0.1905,-0.02117 z"
           id="path171"
           inkscape:connector-curvature="0" /><path
           style="fill:#cb0032;fill-opacity:1;fill-rule:evenodd;stroke:none"
           d="m -1.5455082e-6,10.202249 v 0.402166 L 8.4242753,20.425692 8.7206087,20.595026 c 0.0635,0.04233 0.1693333,0.0635 0.254,0.0635 z"
           id="path173"
           inkscape:connector-curvature="0" /><path
           style="fill:#ca0032;fill-opacity:1;fill-rule:evenodd;stroke:none"
           d="m -1.5455082e-6,10.519749 v 0.402166 L 7.873942,20.108192 l 0.6985,0.402167 z"
           id="path175"
           inkscape:connector-curvature="0" /><path
           style="fill:#c90032;fill-opacity:1;fill-rule:evenodd;stroke:none"
           d="m -1.5455082e-6,10.858415 v 0.402167 L 7.3236087,19.790692 l 0.6985,0.402167 z"
           id="path177"
           inkscape:connector-curvature="0" /><path
           style="fill:#c80033;fill-opacity:1;fill-rule:evenodd;stroke:none"
           d="m -1.5455082e-6,11.175915 v 0.402167 L 6.7732753,19.473192 7.4506087,19.875359 Z"
           id="path179"
           inkscape:connector-curvature="0" /><path
           style="fill:#c70033;fill-opacity:1;fill-rule:evenodd;stroke:none"
           d="m -1.5455082e-6,11.493415 v 0.402167 L 6.222942,19.155692 6.9002753,19.557859 Z"
           id="path181"
           inkscape:connector-curvature="0" /><path
           style="fill:#c60033;fill-opacity:1;fill-rule:evenodd;stroke:none"
           d="m -1.5455082e-6,11.832082 v 0.402167 L 5.6514702,18.817026 6.349942,19.219192 Z"
           id="path183"
           inkscape:connector-curvature="0" /><path
           style="fill:#c50033;fill-opacity:1;fill-rule:evenodd;stroke:none"
           d="m -1.5455082e-6,12.149582 v 0.402167 L 5.1011369,18.499526 5.7996087,18.901692 Z"
           id="path185"
           inkscape:connector-curvature="0" /><path
           style="fill:#c40033;fill-opacity:1;fill-rule:evenodd;stroke:none"
           d="m -1.5455082e-6,12.467082 v 0.402167 L 4.5508036,18.182026 l 0.6985,0.402166 z"
           id="path187"
           inkscape:connector-curvature="0" /><path
           style="fill:#c30033;fill-opacity:1;fill-rule:evenodd;stroke:none"
           d="m -1.5455082e-6,12.805749 v 0.402166 L 4.0004702,17.864526 l 0.6985,0.402166 z"
           id="path189"
           inkscape:connector-curvature="0" /><path
           style="fill:#c20033;fill-opacity:1;fill-rule:evenodd;stroke:none"
           d="m -1.5455082e-6,13.123249 v 0.402138 L 3.4501369,17.547026 l 0.6985,0.402166 z"
           id="path191"
           inkscape:connector-curvature="0" /><path
           style="fill:#c10033;fill-opacity:1;fill-rule:evenodd;stroke:none"
           d="m -1.5455082e-6,13.44072 v 0.423334 L 2.8998036,17.229526 3.5771369,17.631692 Z"
           id="path193"
           inkscape:connector-curvature="0" /><path
           style="fill:#c00033;fill-opacity:1;fill-rule:evenodd;stroke:none"
           d="m -1.5455082e-6,13.779387 v 0.402167 L 2.3283149,16.912054 3.0268036,17.314192 Z"
           id="path195"
           inkscape:connector-curvature="0" /><path
           style="fill:#bf0033;fill-opacity:1;fill-rule:evenodd;stroke:none"
           d="m -1.5455082e-6,14.096887 v 0.402167 L 1.7779843,16.594554 l 0.6984972,0.381 z"
           id="path197"
           inkscape:connector-curvature="0" /><path
           style="fill:#be0033;fill-opacity:1;fill-rule:evenodd;stroke:none"
           d="M -1.5455082e-6,14.414387 V 14.83772 L 1.2276567,16.255887 1.926151,16.658054 Z"
           id="path199"
           inkscape:connector-curvature="0" /><path
           style="fill:#bd0033;fill-opacity:1;fill-rule:evenodd;stroke:none"
           d="M -1.5455082e-6,14.753054 V 15.15522 L 0.67732614,15.938387 1.3758205,16.340554 Z"
           id="path201"
           inkscape:connector-curvature="0" /><path
           style="fill:#bc0033;fill-opacity:1;fill-rule:evenodd;stroke:none"
           d="m -1.5455082e-6,15.070554 v 0.105833 c 0,0.211667 0.1481655355082,0.465667 0.3174971755082,0.5715 l 0.50799718,0.275167 z"
           id="path203"
           inkscape:connector-curvature="0" /><path
           style="fill:#bb0033;fill-opacity:1;fill-rule:evenodd;stroke:none"
           d="m 0.12699761,15.557387 c 0.042333,0.04233 0.0634994,0.08467 0.10583248,0.105833 z"
           id="path205"
           inkscape:connector-curvature="0" /></g></g></g></svg>
