<?xml version="1.0" encoding="UTF-8" standalone="no"?>
<svg
   fill="none"
   height="18.022421"
   stroke="currentColor"
   stroke-linecap="round"
   stroke-linejoin="round"
   stroke-width="2"
   viewBox="0 0 18.045237 18.022421"
   width="18.045237"
   version="1.1"
   id="svg8"
   sodipodi:docname="go.svg"
   inkscape:version="1.1.1 (1:1.1+202109281949+c3084ef5ed)"
   xmlns:inkscape="http://www.inkscape.org/namespaces/inkscape"
   xmlns:sodipodi="http://sodipodi.sourceforge.net/DTD/sodipodi-0.dtd"
   xmlns="http://www.w3.org/2000/svg"
   xmlns:svg="http://www.w3.org/2000/svg">
  <defs
     id="defs12" />
  <sodipodi:namedview
     id="namedview10"
     pagecolor="#505050"
     bordercolor="#ffffff"
     borderopacity="1"
     inkscape:pageshadow="0"
     inkscape:pageopacity="0"
     inkscape:pagecheckerboard="1"
     showgrid="false"
     fit-margin-top="0"
     fit-margin-left="0"
     fit-margin-right="0"
     fit-margin-bottom="0"
     inkscape:zoom="15.379572"
     inkscape:cx="8.2251961"
     inkscape:cy="4.6165132"
     inkscape:window-width="1920"
     inkscape:window-height="1052"
     inkscape:window-x="1366"
     inkscape:window-y="0"
     inkscape:window-maximized="1"
     inkscape:current-layer="svg8" />
  <path
     style="opacity:1;fill:#0278a3;fill-opacity:1;stroke:none;stroke-width:0.091954;stroke-linecap:round;stroke-linejoin:round"
     d="M 7.7592923,17.908917 C 4.4066083,17.42172 1.5785123,15.069354 0.51135334,11.880196 -0.66663966,8.3598164 0.43832334,4.4794367 3.2961393,2.1006187 5.4833563,0.28000338 8.4994543,-0.38894362 11.2839,0.32899548 c 1.491674,0.38461208 2.833172,1.13831672 3.963661,2.22693652 4.152002,3.9982263 3.51804,10.786975 -1.304361,13.967676 -1.094503,0.721899 -2.375676,1.202808 -3.694338,1.38673 -0.6318627,0.08813 -1.8782157,0.08742 -2.4895697,-0.0014 z m 1.678161,-3.968595 c 0.123841,-0.05785 0.8916497,-0.797094 2.3508067,-2.263359 2.120251,-2.1305776 2.168107,-2.1826496 2.222977,-2.4188326 0.04412,-0.189903 0.04412,-0.292855 0,-0.482758 C 13.956367,8.5391894 13.908511,8.4871174 11.78826,6.356539 10.329103,4.8902742 9.5612943,4.1510276 9.4374533,4.093181 8.7838873,3.7878973 8.0208683,4.2852153 8.0204493,5.0167514 c -9.2e-5,0.1499559 0.03277,0.3183664 0.08073,0.4137931 0.04448,0.088506 0.621814,0.704023 1.282962,1.3678161 L 10.586229,8.0052574 H 7.7000203 c -3.151348,0 -3.070881,-0.0064 -3.358731,0.266807 -0.5354,0.508149 -0.375398,1.401985 0.301585,1.684777 0.148377,0.06198 0.55184,0.0714 3.057146,0.0714 h 2.8862087 l -1.2020877,1.206897 c -0.661148,0.663793 -1.23848,1.27931 -1.282962,1.367816 -0.175814,0.349824 -0.06898,0.86526 0.240111,1.158383 0.28213,0.267561 0.744799,0.343105 1.096164,0.178981 z"
     id="path866" />
</svg>
