<?xml version="1.0" encoding="UTF-8" standalone="no"?>
<!-- Created with Inkscape (http://www.inkscape.org/) -->

<svg
   version="1.1"
   id="svg2"
   xml:space="preserve"
   width="581.65027"
   height="350.59641"
   viewBox="0 0 581.65027 350.59641"
   sodipodi:docname="inpost.svg"
   inkscape:version="1.1.1 (1:1.1+202109281949+c3084ef5ed)"
   xmlns:inkscape="http://www.inkscape.org/namespaces/inkscape"
   xmlns:sodipodi="http://sodipodi.sourceforge.net/DTD/sodipodi-0.dtd"
   xmlns="http://www.w3.org/2000/svg"
   xmlns:svg="http://www.w3.org/2000/svg"><defs
     id="defs6"><clipPath
       clipPathUnits="userSpaceOnUse"
       id="clipPath18"><path
         d="M 0,371.311 H 539.622 V 0 H 0 Z"
         id="path16" /></clipPath><pattern
       id="EMFhbasepattern"
       patternUnits="userSpaceOnUse"
       width="6"
       height="6"
       x="0"
       y="0" /></defs><sodipodi:namedview
     id="namedview4"
     pagecolor="#505050"
     bordercolor="#ffffff"
     borderopacity="1"
     inkscape:pageshadow="0"
     inkscape:pageopacity="0"
     inkscape:pagecheckerboard="1"
     showgrid="false"
     fit-margin-top="0"
     fit-margin-left="0"
     fit-margin-right="0"
     fit-margin-bottom="0"
     inkscape:zoom="1.1068888"
     inkscape:cx="187.46237"
     inkscape:cy="165.32826"
     inkscape:window-width="1920"
     inkscape:window-height="1052"
     inkscape:window-x="1366"
     inkscape:window-y="0"
     inkscape:window-maximized="1"
     inkscape:current-layer="g8" /><g
     id="g8"
     inkscape:groupmode="layer"
     inkscape:label="InPost_logotype_2019_lift_claim_RGB"
     transform="matrix(1.3333333,0,0,-1.3333333,-55.266265,423.38759)"><g
       id="g1622"
       transform="matrix(0.8400262,0,0,0.8400262,34.339712,45.005091)"><g
         id="g12"><g
           id="g14"
           clip-path="url(#clipPath18)"><g
             id="g20"
             transform="translate(229.7308,110.5781)"><path
               d="m 0,0 c -1.768,1.46 -2.638,3.423 -2.638,5.893 0,2.498 0.87,4.463 2.638,5.923 1.769,1.459 4.154,2.188 7.157,2.188 3.003,0 5.361,-0.729 7.13,-2.188 1.767,-1.46 2.666,-3.425 2.666,-5.923 C 16.953,3.423 16.054,1.46 14.287,0 12.518,-1.46 10.16,-2.19 7.157,-2.19 4.154,-2.19 1.769,-1.46 0,0 m 12.349,5.893 c 0,2.722 -2.021,4.463 -5.192,4.463 -3.171,0 -5.192,-1.741 -5.192,-4.463 0,-2.721 2.021,-4.433 5.192,-4.433 3.171,0 5.192,1.712 5.192,4.433"
               style="fill:#404041;fill-opacity:1;fill-rule:nonzero;stroke:none"
               id="path22" /></g><g
             id="g24"
             transform="translate(263.6425,124.1904)"><path
               d="M 0,0 H 4.49 V -15.408 H 0.113 v 2.385 c -1.039,-1.712 -3.116,-2.78 -5.811,-2.78 -2.329,0 -4.04,0.59 -5.36,1.855 -1.375,1.344 -1.937,3.141 -1.937,6.427 V 0 h 4.519 v -7.636 c 0,-1.907 0.421,-3.031 1.347,-3.677 0.785,-0.477 1.46,-0.672 2.554,-0.672 2.021,0 3.593,1.038 4.266,2.75 C -0.112,-8.759 0,-8.084 0,-7.271 Z"
               style="fill:#404041;fill-opacity:1;fill-rule:nonzero;stroke:none"
               id="path26" /></g><g
             id="g28"
             transform="translate(284.8031,112.4297)"><path
               d="m 0,0 v -3.648 h -5.64 c -3.116,0 -4.407,1.235 -4.407,4.155 v 7.661 h -2.863 v 3.593 h 2.863 v 4.124 h 4.519 V 11.761 H 0 V 8.168 H -5.528 V 1.516 C -5.528,0.366 -5.135,0 -3.761,0 Z"
               style="fill:#404041;fill-opacity:1;fill-rule:nonzero;stroke:none"
               id="path30" /></g><g
             id="g32"
             transform="translate(299.4598,110.5781)"><path
               d="m 0,0 c -1.767,1.46 -2.638,3.423 -2.638,5.893 0,2.498 0.871,4.463 2.638,5.923 1.769,1.459 4.154,2.188 7.157,2.188 3.003,0 5.361,-0.729 7.129,-2.188 1.769,-1.46 2.667,-3.425 2.667,-5.923 C 16.953,3.423 16.055,1.46 14.286,0 12.518,-1.46 10.16,-2.19 7.157,-2.19 4.154,-2.19 1.769,-1.46 0,0 m 12.35,5.893 c 0,2.722 -2.022,4.463 -5.193,4.463 -3.171,0 -5.191,-1.741 -5.191,-4.463 0,-2.721 2.02,-4.433 5.191,-4.433 3.171,0 5.193,1.712 5.193,4.433"
               style="fill:#404041;fill-opacity:1;fill-rule:nonzero;stroke:none"
               id="path34" /></g><g
             id="g36"
             transform="translate(330.6371,126.2929)"><path
               d="M 0,0 H -2.833 C -3.985,0 -4.434,-0.307 -4.434,-1.12 V -2.103 H 0 v -3.592 h -4.434 v -11.817 h -4.517 v 11.817 h -2.527 v 3.592 h 2.527 v 1.178 c 0,3.003 1.936,4.406 5.893,4.406 H 0 Z"
               style="fill:#404041;fill-opacity:1;fill-rule:nonzero;stroke:none"
               id="path38" /></g><g
             id="g40"
             transform="translate(355.0345,112.4297)"><path
               d="m 0,0 v -3.648 h -5.64 c -3.116,0 -4.407,1.235 -4.407,4.155 v 7.661 h -2.863 v 3.593 h 2.863 v 4.124 h 4.518 V 11.761 H 0 V 8.168 H -5.529 V 1.516 C -5.529,0.366 -5.136,0 -3.761,0 Z"
               style="fill:#404041;fill-opacity:1;fill-rule:nonzero;stroke:none"
               id="path42" /></g><g
             id="g44"
             transform="translate(359.493,108.7822)"><path
               d="m 0,0 v 20.993 h 4.519 v -7.776 c 1.149,1.599 3.282,2.583 5.893,2.583 2.245,0 4.013,-0.617 5.36,-1.852 1.375,-1.319 1.964,-3.171 1.964,-6.427 V 0 h -4.517 v 7.632 c 0,1.769 -0.394,2.836 -1.264,3.508 -0.702,0.561 -1.657,0.842 -2.695,0.842 -2.132,0 -3.816,-1.065 -4.461,-2.776 C 4.602,8.67 4.519,8.027 4.519,7.24 V 0 Z"
               style="fill:#404041;fill-opacity:1;fill-rule:nonzero;stroke:none"
               id="path46" /></g><g
             id="g48"
             transform="translate(383.8461,110.5224)"><path
               d="m 0,0 c -1.739,1.431 -2.609,3.394 -2.609,5.921 0,2.385 0.897,4.35 2.721,5.866 1.825,1.515 4.155,2.273 7.044,2.273 2.836,0 5.109,-0.673 6.849,-2.022 1.768,-1.346 2.638,-3.087 2.638,-5.192 0,-0.196 0,-0.363 -0.029,-0.56 0,-0.198 -0.027,-0.616 -0.055,-1.318 H 2.021 C 2.33,2.806 4.435,1.542 7.719,1.542 c 2.358,0 4.685,0.758 6.118,1.992 L 16.25,0.813 C 14.594,-1.012 11.198,-2.135 7.297,-2.135 4.182,-2.135 1.769,-1.434 0,0 m 2.162,7.802 h 9.711 c -0.309,1.767 -2.049,2.861 -4.661,2.861 -2.665,0 -4.573,-1.064 -5.05,-2.861"
               style="fill:#404041;fill-opacity:1;fill-rule:nonzero;stroke:none"
               id="path50" /></g><g
             id="g52"
             transform="translate(413.4672,108.7822)"><path
               d="m 0,0 v 20.993 h 4.518 v -7.411 c 1.488,1.46 3.621,2.218 6.089,2.218 2.61,0 4.715,-0.758 6.371,-2.244 1.655,-1.49 2.47,-3.452 2.47,-5.869 0,-2.383 -0.815,-4.35 -2.47,-5.835 -1.656,-1.49 -3.761,-2.248 -6.371,-2.248 -2.553,0 -4.741,0.817 -6.202,2.277 L 4.405,0 Z m 14.845,7.687 c 0,2.668 -2.048,4.435 -5.078,4.435 -3.144,0 -5.249,-1.767 -5.249,-4.435 0,-2.665 2.105,-4.405 5.249,-4.405 3.058,0 5.078,1.74 5.078,4.405"
               style="fill:#404041;fill-opacity:1;fill-rule:nonzero;stroke:none"
               id="path54" /></g><g
             id="g56"
             transform="translate(438.9515,110.5781)"><path
               d="m 0,0 c -1.768,1.46 -2.638,3.423 -2.638,5.893 0,2.498 0.87,4.463 2.638,5.923 1.769,1.459 4.154,2.188 7.156,2.188 3.004,0 5.362,-0.729 7.13,-2.188 1.768,-1.46 2.666,-3.425 2.666,-5.923 C 16.952,3.423 16.054,1.46 14.286,0 12.518,-1.46 10.16,-2.19 7.156,-2.19 4.154,-2.19 1.769,-1.46 0,0 m 12.35,5.893 c 0,2.722 -2.022,4.463 -5.194,4.463 -3.17,0 -5.19,-1.741 -5.19,-4.463 0,-2.721 2.02,-4.433 5.19,-4.433 3.172,0 5.194,1.712 5.194,4.433"
               style="fill:#404041;fill-opacity:1;fill-rule:nonzero;stroke:none"
               id="path58" /></g><g
             id="g60"
             transform="translate(477.6874,108.7822)"><path
               d="M 0,0 H -6.006 L -10.356,4.993 -14.735,0 h -5.613 l 7.241,7.772 -7.101,7.635 h 5.921 l 4.183,-4.685 4.154,4.685 h 5.614 L -7.353,7.942 Z"
               style="fill:#404041;fill-opacity:1;fill-rule:nonzero;stroke:none"
               id="path62" /></g><g
             id="g64"
             transform="translate(273.9032,149.7216)"><path
               d="m 0,0 h -12.065 v 34.672 c 0,7.301 -3.219,11.231 -9.065,11.684 -3.644,0.284 -9.419,-0.576 -13.61,-1.516 V 0 h -12.07 v 53.427 c 0,0 14.676,3.271 27.931,3.261 5.733,-0.006 10.315,-2.044 13.737,-5.477 C -1.716,47.779 0,42.997 0,36.866 Z"
               style="fill:#404041;fill-opacity:1;fill-rule:nonzero;stroke:none"
               id="path66" /></g><g
             id="g68"
             transform="translate(477.4276,149.3535)"><path
               d="m 0,0 c -1.983,-0.505 -4.044,-0.757 -6.175,-0.757 -6.8,0 -11.293,1.513 -13.481,4.538 -1.747,2.378 -2.617,6.885 -2.617,13.519 v 55.603 h 11.91 V 57.18 H 0.211 V 47.451 H -10.363 V 18.057 c 0,-3.174 0.403,-5.267 1.212,-6.277 0.954,-1.294 2.976,-1.942 6.067,-1.942 0.882,0 1.909,0.07 3.084,0.215 z"
               style="fill:#404041;fill-opacity:1;fill-rule:nonzero;stroke:none"
               id="path70" /></g><g
             id="g72"
             transform="translate(104.5697,185.9121)"><path
               d="M 0,0 C 0,0 -14.128,-5.462 -31.56,-5.462 -48.99,-5.462 -63.12,0 -63.12,0 c 0,0 14.13,5.461 31.56,5.461 C -14.128,5.461 0,0 0,0"
               style="fill:#ffcb04;fill-opacity:1;fill-rule:nonzero;stroke:none"
               id="path74" /></g><g
             id="g76"
             transform="translate(148.2094,266.2397)"><path
               d="m 0,0 c 0,0 -12.519,8.431 -22.267,22.597 -9.745,14.166 -13.029,28.704 -13.029,28.704 0,0 12.518,-8.431 22.267,-22.596 C -3.283,14.537 0,0 0,0"
               style="fill:#ffcb04;fill-opacity:1;fill-rule:nonzero;stroke:none"
               id="path78" /></g><g
             id="g80"
             transform="translate(116.2465,231.5781)"><path
               d="m 0,0 c 0,0 -15.09,1.681 -30.48,9.705 -15.39,8.021 -25.25,19.346 -25.25,19.346 0,0 15.09,-1.681 30.48,-9.704 C -9.86,11.325 0,0 0,0"
               style="fill:#ffcb04;fill-opacity:1;fill-rule:nonzero;stroke:none"
               id="path82" /></g><g
             id="g84"
             transform="translate(146.6986,159.6132)"><path
               d="m 0,0 c 8.958,0.085 19.762,7.139 19.762,7.139 0,0 -25.052,7.582 -23.475,30.052 4.94,36.877 34.797,65.829 72.174,70.488 -3.964,0.547 -8.012,0.833 -12.134,0.815 -46.23,-0.204 -83.54,-37.116 -83.332,-82.441 0.207,-45.323 37.855,-81.9 84.086,-81.696 3.856,0.016 7.643,0.311 11.358,0.823 -32.804,4.099 -59.504,26.775 -69.082,56.743"
               style="fill:#ffcb04;fill-opacity:1;fill-rule:nonzero;stroke:none"
               id="path86" /></g><g
             id="g88"
             transform="translate(148.2094,105.8974)"><path
               d="m 0,0 c 0,0 -12.519,-8.432 -22.267,-22.6 -9.745,-14.164 -13.029,-28.704 -13.029,-28.704 0,0 12.518,8.432 22.267,22.598 C -3.283,-14.54 0,0 0,0"
               style="fill:#ffcb04;fill-opacity:1;fill-rule:nonzero;stroke:none"
               id="path90" /></g><g
             id="g92"
             transform="translate(116.2465,140.5566)"><path
               d="m 0,0 c 0,0 -15.09,-1.681 -30.48,-9.705 -15.39,-8.02 -25.25,-19.345 -25.25,-19.345 0,0 15.09,1.681 30.48,9.703 C -9.86,-11.324 0,0 0,0"
               style="fill:#ffcb04;fill-opacity:1;fill-rule:nonzero;stroke:none"
               id="path94" /></g><path
             d="m 215.16,149.781 h -12.304 v 72.535 h 12.304 z"
             style="fill:#404041;fill-opacity:1;fill-rule:nonzero;stroke:none"
             id="path96" /><g
             id="g98"
             transform="translate(326.2128,197.5278)"><path
               d="m 0,0 c 0,8.794 -4.303,13.189 -12.9,13.189 h -15.172 v -26.165 h 14.946 c 4.119,0 7.337,1.134 9.652,3.406 C -1.16,-7.3 0,-4.11 0,0 m 12.433,0 c 0,-7.424 -2.302,-13.39 -6.888,-17.896 -4.599,-4.504 -10.832,-6.755 -18.699,-6.755 h -14.918 v -22.921 h -12.303 v 72.548 h 26.339 c 8.527,0 15.073,-2.22 19.632,-6.653 C 10.152,13.891 12.433,7.783 12.433,0"
               style="fill:#404041;fill-opacity:1;fill-rule:nonzero;stroke:none"
               id="path100" /></g><g
             id="g102"
             transform="translate(383.142,178.4697)"><path
               d="m 0,0 c 0,5.463 -1.271,9.791 -3.801,12.989 -2.543,3.196 -5.904,4.798 -10.098,4.798 -4.186,0 -7.553,-1.62 -10.091,-4.851 C -26.52,9.7 -27.788,5.392 -27.788,0 c 0,-5.459 1.268,-9.788 3.798,-12.986 2.538,-3.2 5.905,-4.798 10.091,-4.798 4.194,0 7.555,1.598 10.098,4.798 C -1.271,-9.788 0,-5.459 0,0 m 12.459,0.056 c 0,-8.722 -2.443,-15.751 -7.334,-21.084 -4.894,-5.335 -11.227,-7.999 -19.024,-7.999 -7.786,0 -14.133,2.664 -19.019,7.999 -4.893,5.333 -7.334,12.362 -7.334,21.084 0,8.717 2.441,15.73 7.334,21.029 4.886,5.295 11.233,7.945 19.019,7.945 7.868,0 14.228,-2.65 19.081,-7.945 4.85,-5.299 7.277,-12.312 7.277,-21.029"
               style="fill:#404041;fill-opacity:1;fill-rule:nonzero;stroke:none"
               id="path104" /></g><g
             id="g106"
             transform="translate(448.0126,168.4716)"><path
               d="m 0,0 c 0,-5.48 -2.132,-9.983 -6.4,-13.517 -4.26,-3.534 -9.888,-5.293 -16.866,-5.293 -10.886,0 -19.301,3.242 -25.258,9.73 l 9.152,7.674 c 4.56,-4.474 9.891,-6.704 15.991,-6.704 3.387,0 6.069,0.667 8.055,2 1.984,1.334 2.977,3.006 2.977,5.027 0,2.305 -1.142,3.893 -3.419,4.757 -1.324,0.504 -4.852,1.188 -10.588,2.056 -6.911,1.006 -11.836,2.521 -14.782,4.54 -3.454,2.448 -5.176,6.126 -5.176,11.024 0,4.976 2.092,9.137 6.282,12.493 4.189,3.349 9.778,5.027 16.766,5.027 8.448,0 15.655,-2.778 21.613,-8.327 l -7.17,-7.568 c -4.337,3.816 -9.264,5.731 -14.779,5.731 -7.058,0 -10.583,-1.986 -10.583,-5.949 0,-2.304 1.614,-3.892 4.853,-4.758 4.555,-0.716 9.076,-1.475 13.564,-2.266 C -5.258,13.729 0,8.504 0,0"
               style="fill:#404041;fill-opacity:1;fill-rule:nonzero;stroke:none"
               id="path108" /></g></g></g></g></g></svg>
