<?xml version="1.0" encoding="UTF-8" standalone="no"?>
<svg
   viewBox="0 0 34.848667 34.848667"
   version="1.1"
   id="svg6"
   sodipodi:docname="link.svg"
   width="34.848667"
   height="34.848667"
   inkscape:version="1.1.1 (1:1.1+202109281949+c3084ef5ed)"
   xmlns:inkscape="http://www.inkscape.org/namespaces/inkscape"
   xmlns:sodipodi="http://sodipodi.sourceforge.net/DTD/sodipodi-0.dtd"
   xmlns="http://www.w3.org/2000/svg"
   xmlns:svg="http://www.w3.org/2000/svg">
  <defs
     id="defs10" />
  <sodipodi:namedview
     id="namedview8"
     pagecolor="#505050"
     bordercolor="#ffffff"
     borderopacity="1"
     inkscape:pageshadow="0"
     inkscape:pageopacity="0"
     inkscape:pagecheckerboard="1"
     showgrid="false"
     fit-margin-top="0"
     fit-margin-left="0"
     fit-margin-right="0"
     fit-margin-bottom="0"
     inkscape:zoom="11.416667"
     inkscape:cx="36.569343"
     inkscape:cy="28.029197"
     inkscape:window-width="1920"
     inkscape:window-height="1052"
     inkscape:window-x="1366"
     inkscape:window-y="0"
     inkscape:window-maximized="1"
     inkscape:current-layer="svg6" />
  <title
     id="title2" />
  <circle
     style="fill:#002330;fill-opacity:1;stroke-width:2.23746;stroke-linecap:round;stroke-linejoin:round;paint-order:stroke fill markers"
     id="path849"
     cx="17.424334"
     cy="17.424334"
     r="17.424334" />
  <path
     d="m 17.089399,15.170503 h 5.745464 l -2.791218,-2.791069 c -0.23405,-0.234049 -0.23405,-0.613594 0,-0.847644 0.23405,-0.23405 0.613594,-0.23405 0.847644,0 l 3.814326,3.814176 c 0.23405,0.23405 0.23405,0.613594 0,0.847644 l -3.814326,3.814326 c -0.23405,0.23405 -0.613594,0.23405 -0.847644,0 -0.23405,-0.23405 -0.23405,-0.613595 0,-0.847645 l 2.791068,-2.791068 h -5.745314 c -2.317124,0 -4.195517,1.878394 -4.195517,4.195518 V 21.1641 c 0,0.330997 -0.268363,0.59936 -0.599359,0.59936 -0.330997,0 -0.599361,-0.268363 -0.599361,-0.59936 v -0.599359 c 0,-2.979267 2.415121,-5.394238 5.394237,-5.394238 z"
     id="path846"
     style="fill:#ffffff;fill-opacity:1;stroke:#ffffff;stroke-width:0.34821;stroke-miterlimit:4;stroke-dasharray:none;stroke-opacity:1" />
</svg>
