<?xml version="1.0" encoding="UTF-8" standalone="no"?>
<!-- Created with Inkscape (http://www.inkscape.org/) -->

<svg
   width="93.070107mm"
   height="20.55118mm"
   viewBox="0 0 93.070107 20.55118"
   version="1.1"
   id="svg1356"
   inkscape:version="1.1.1 (1:1.1+202109281949+c3084ef5ed)"
   sodipodi:docname="logo_decobelo.svg"
   xmlns:inkscape="http://www.inkscape.org/namespaces/inkscape"
   xmlns:sodipodi="http://sodipodi.sourceforge.net/DTD/sodipodi-0.dtd"
   xmlns="http://www.w3.org/2000/svg"
   xmlns:svg="http://www.w3.org/2000/svg">
  <sodipodi:namedview
     id="namedview1358"
     pagecolor="#505050"
     bordercolor="#ffffff"
     borderopacity="1"
     inkscape:pageshadow="0"
     inkscape:pageopacity="0"
     inkscape:pagecheckerboard="1"
     inkscape:document-units="mm"
     showgrid="false"
     fit-margin-top="0"
     fit-margin-left="0"
     fit-margin-right="0"
     fit-margin-bottom="0"
     inkscape:zoom="0.46502525"
     inkscape:cx="130.10046"
     inkscape:cy="419.33207"
     inkscape:window-width="1920"
     inkscape:window-height="1052"
     inkscape:window-x="1366"
     inkscape:window-y="0"
     inkscape:window-maximized="1"
     inkscape:current-layer="layer1" />
  <defs
     id="defs1353" />
  <g
     inkscape:label="Warstwa 1"
     inkscape:groupmode="layer"
     id="layer1"
     transform="translate(-70.619891,-37.804293)">
    <g
       id="g151"
       transform="matrix(1.5820892,0,0,1.5820892,56.359457,20.115341)">
      <path
         d="m 27.408889,14.178925 c 0.526865,0 0.990334,0.0895 1.390273,0.26842 0.400071,0.17877 0.733464,0.42593 1.000178,0.74147 0.266583,0.31541 0.468326,0.67965 0.604832,1.09272 0.136639,0.41306 0.204893,0.85054 0.204893,1.3123 0,0.62453 -0.120363,1.19523 -0.360957,1.71238 -0.240725,0.51702 -0.598401,0.93009 -1.073288,1.23907 -0.474756,0.30898 -1.063444,0.46347 -1.765931,0.46347 h -2.673441 v -6.82983 z m -0.04883,5.81508 c 0.513871,0 0.930217,-0.10894 1.24891,-0.32683 0.318691,-0.21789 0.552853,-0.50902 0.702486,-0.87325 0.149633,-0.36424 0.224449,-0.76431 0.224449,-1.20009 0,-0.42934 -0.07482,-0.826 -0.224449,-1.19037 -0.149633,-0.36423 -0.383795,-0.65694 -0.702486,-0.8781 -0.318693,-0.22104 -0.735039,-0.33169 -1.24891,-0.33169 h -1.570884 v 4.80033 z"
         style="fill:#0278a3;fill-opacity:1;fill-rule:nonzero;stroke:none;stroke-width:0.131257"
         id="path120"
         inkscape:connector-curvature="0" />
      <path
         d="m 36.180266,20.335535 h -0.0098 c -0.208042,0.20161 -0.494313,0.38051 -0.858551,0.53658 -0.364238,0.15619 -0.744753,0.23416 -1.141542,0.23416 -0.533429,0 -1.003328,-0.11222 -1.409832,-0.33654 -0.406502,-0.22445 -0.723619,-0.53343 -0.95135,-0.92694 -0.2276,-0.39351 -0.341399,-0.8407 -0.341399,-1.34158 0,-0.57241 0.120232,-1.06187 0.360956,-1.46837 0.240595,-0.4065 0.559418,-0.71876 0.956207,-0.93665 0.39679,-0.21789 0.829282,-0.32683 1.297607,-0.32683 0.429341,0 0.819568,0.10566 1.170812,0.31712 0.351244,0.21132 0.630952,0.50245 0.839126,0.87312 0.208173,0.3708 0.312129,0.80342 0.312129,1.29774 l -0.0097,0.42934 h -3.922221 c 0.05854,0.46176 0.248732,0.82757 0.570706,1.09757 0.321972,0.27 0.730182,0.40493 1.224495,0.40493 0.357807,0 0.647228,-0.0667 0.868397,-0.20004 0.221167,-0.13336 0.403221,-0.26186 0.546422,-0.38537 z m -2.097748,-3.63936 c -0.383796,0 -0.718764,0.0895 -1.004903,0.26842 -0.286272,0.17877 -0.474888,0.48617 -0.565981,0.92194 h 2.86849 v -0.0682 c -0.01943,-0.22116 -0.09267,-0.41634 -0.219462,-0.5854 -0.126794,-0.16919 -0.284565,-0.30084 -0.473181,-0.39522 -0.188616,-0.0942 -0.390358,-0.14149 -0.604963,-0.14149 z"
         style="fill:#0278a3;fill-opacity:1;fill-rule:nonzero;stroke:none;stroke-width:0.131257"
         id="path122"
         inkscape:connector-curvature="0" />
      <path
         d="m 38.141376,18.442675 c 0,0.33825 0.07639,0.63909 0.229308,0.90252 0.152782,0.26344 0.354394,0.47161 0.604832,0.6244 0.250439,0.15291 0.518725,0.2293 0.804997,0.2293 0.325254,0 0.608114,-0.0845 0.848841,-0.25359 0.240593,-0.16919 0.435772,-0.34481 0.585403,-0.52686 l 0.556136,0.68293 c -0.123642,0.17562 -0.292702,0.33982 -0.507306,0.49273 -0.214739,0.15279 -0.458614,0.27643 -0.731759,0.37068 -0.273276,0.0944 -0.559418,0.14149 -0.858682,0.14149 -0.468325,0 -0.891104,-0.11708 -1.268336,-0.35124 -0.377234,-0.23417 -0.674924,-0.55286 -0.892811,-0.95608 -0.217886,-0.40335 -0.326829,-0.8554 -0.326829,-1.35628 0,-0.5073 0.108943,-0.96106 0.326829,-1.361 0.217887,-0.40007 0.515577,-0.71719 0.892811,-0.95135 0.377232,-0.23416 0.800011,-0.35125 1.268336,-0.35125 0.474887,0 0.897667,0.096 1.268465,0.28785 0.370672,0.1919 0.647099,0.44063 0.829282,0.74633 l -0.556136,0.68306 c -0.149631,-0.22117 -0.362661,-0.41149 -0.639088,-0.57084 -0.276428,-0.15934 -0.544718,-0.23902 -0.804871,-0.23902 -0.305828,0 -0.582255,0.0764 -0.829411,0.22931 -0.247157,0.15291 -0.442336,0.36096 -0.585407,0.62439 -0.143068,0.26343 -0.214604,0.56427 -0.214604,0.90252 z"
         style="fill:#0278a3;fill-opacity:1;fill-rule:nonzero;stroke:none;stroke-width:0.131257"
         id="path124"
         inkscape:connector-curvature="0" />
      <path
         d="m 47.624953,18.442675 c 0,0.52044 -0.115504,0.98062 -0.346386,1.38056 -0.230879,0.40008 -0.54314,0.71391 -0.936649,0.94164 -0.393509,0.2276 -0.834141,0.3414 -1.322021,0.3414 -0.487884,0 -0.930086,-0.1138 -1.326877,-0.3414 -0.39679,-0.22773 -0.710625,-0.54156 -0.941638,-0.94164 -0.230879,-0.39994 -0.346256,-0.86012 -0.346256,-1.38056 0,-0.5203 0.115377,-0.98049 0.346256,-1.38056 0.231013,-0.40007 0.544848,-0.7139 0.941638,-0.9415 0.396791,-0.22774 0.838993,-0.34154 1.326877,-0.34154 0.48788,0 0.928512,0.1138 1.322021,0.34154 0.393509,0.2276 0.70577,0.54143 0.936649,0.9415 0.230882,0.40007 0.346386,0.86026 0.346386,1.38056 z m -1.02446,0 c 0.0066,-0.34468 -0.06011,-0.6488 -0.200034,-0.91223 -0.13979,-0.26344 -0.330113,-0.46833 -0.570706,-0.61468 -0.240724,-0.14635 -0.510592,-0.21959 -0.809856,-0.21959 -0.299265,0 -0.570706,0.0732 -0.814711,0.21959 -0.243875,0.14635 -0.435773,0.35124 -0.575696,0.61468 -0.139786,0.26343 -0.206464,0.56755 -0.1999,0.91223 -0.0066,0.33825 0.06011,0.63909 0.1999,0.90252 0.139923,0.26344 0.331821,0.46991 0.575696,0.61954 0.244005,0.14963 0.515446,0.22445 0.814711,0.22445 0.299264,0 0.569132,-0.0748 0.809856,-0.22445 0.240593,-0.14963 0.430916,-0.3561 0.570706,-0.61954 0.139919,-0.26343 0.206597,-0.56427 0.200034,-0.90252 z"
         style="fill:#0278a3;fill-opacity:1;fill-rule:nonzero;stroke:none;stroke-width:0.131257"
         id="path126"
         inkscape:connector-curvature="0" />
      <path
         d="m 51.381397,15.779075 c 0.455202,0 0.863408,0.11223 1.224365,0.33668 0.361087,0.22432 0.645655,0.53658 0.853827,0.93665 0.208045,0.39994 0.31213,0.86012 0.31213,1.38056 0,0.5203 -0.104085,0.98219 -0.31213,1.38542 -0.208172,0.40335 -0.491162,0.71876 -0.848838,0.94649 -0.357805,0.2276 -0.757878,0.3414 -1.200083,0.3414 -0.364369,0 -0.694482,-0.0797 -0.990334,-0.23902 -0.295983,-0.15935 -0.52857,-0.33982 -0.69763,-0.54143 v 0.65366 H 48.71767 v -7.19079 h 1.005034 v 2.83922 c 0.149631,-0.2146 0.37395,-0.40978 0.673218,-0.5854 0.299135,-0.17562 0.62767,-0.26344 0.985475,-0.26344 z m -0.136637,0.9171 c -0.305698,0 -0.57727,0.0748 -0.814712,0.22445 -0.237445,0.14963 -0.422779,0.3561 -0.556136,0.61953 -0.133356,0.26343 -0.200038,0.56099 -0.200038,0.89281 0,0.33169 0.06668,0.62924 0.200038,0.89268 0.133357,0.26343 0.318691,0.47331 0.556136,0.62938 0.237442,0.15606 0.509014,0.23416 0.814712,0.23416 0.305697,0 0.575691,-0.0781 0.809855,-0.23416 0.234161,-0.15607 0.417921,-0.36595 0.551147,-0.62938 0.13336,-0.26344 0.200038,-0.56099 0.200038,-0.89268 0,-0.33182 -0.06668,-0.62938 -0.200038,-0.89281 -0.133226,-0.26343 -0.316986,-0.4699 -0.551147,-0.61953 -0.234164,-0.14964 -0.504158,-0.22445 -0.809855,-0.22445 z"
         style="fill:#0278a3;fill-opacity:1;fill-rule:nonzero;stroke:none;stroke-width:0.131257"
         id="path128"
         inkscape:connector-curvature="0" />
      <path
         d="m 59.264823,20.335535 h -0.0097 c -0.208171,0.20161 -0.494313,0.38051 -0.858682,0.53658 -0.364239,0.15619 -0.744752,0.23416 -1.141543,0.23416 -0.533294,0 -1.003326,-0.11222 -1.409828,-0.33654 -0.406506,-0.22445 -0.723622,-0.53343 -0.951219,-0.92694 -0.227731,-0.39351 -0.341532,-0.8407 -0.341532,-1.34158 0,-0.57241 0.120364,-1.06187 0.360957,-1.46837 0.240724,-0.4065 0.559414,-0.71876 0.956205,-0.93665 0.396791,-0.21789 0.829282,-0.32683 1.297606,-0.32683 0.429343,0 0.81957,0.10566 1.170813,0.31712 0.351246,0.21132 0.630951,0.50245 0.839126,0.87312 0.208172,0.3708 0.312261,0.80342 0.312261,1.29774 l -0.0097,0.42934 h -3.922352 c 0.05854,0.46176 0.248861,0.82757 0.570836,1.09757 0.321972,0.27 0.730182,0.40493 1.224495,0.40493 0.357675,0 0.647229,-0.0667 0.868267,-0.20004 0.221167,-0.13336 0.40335,-0.26186 0.546421,-0.38537 z m -2.097751,-3.63936 c -0.383664,0 -0.718632,0.0895 -1.004904,0.26842 -0.286138,0.17877 -0.474888,0.48617 -0.565847,0.92194 h 2.868491 v -0.0682 c -0.01957,-0.22116 -0.09267,-0.41634 -0.219594,-0.5854 -0.126797,-0.16919 -0.284564,-0.30084 -0.47318,-0.39522 -0.188619,-0.0942 -0.390227,-0.14149 -0.604966,-0.14149 z"
         style="fill:#0278a3;fill-opacity:1;fill-rule:nonzero;stroke:none;stroke-width:0.131257"
         id="path130"
         inkscape:connector-curvature="0" />
      <path
         d="m 60.601541,21.008755 h 1.004956 v -7.22004 h -1.004956 z"
         style="fill:#0278a3;fill-opacity:1;fill-rule:nonzero;stroke:none;stroke-width:0.131257"
         id="path132"
         inkscape:connector-curvature="0" />
      <path
         d="m 67.841019,18.442675 c 0,0.52044 -0.115375,0.98062 -0.346253,1.38056 -0.231013,0.40008 -0.543144,0.71391 -0.936653,0.94164 -0.393639,0.2276 -0.834267,0.3414 -1.322151,0.3414 -0.48775,0 -0.930085,-0.1138 -1.326876,-0.3414 -0.396791,-0.22773 -0.710626,-0.54156 -0.941505,-0.94164 -0.230882,-0.39994 -0.346387,-0.86012 -0.346387,-1.38056 0,-0.5203 0.115505,-0.98049 0.346387,-1.38056 0.230879,-0.40007 0.544714,-0.7139 0.941505,-0.9415 0.396791,-0.22774 0.839126,-0.34154 1.326876,-0.34154 0.487884,0 0.928512,0.1138 1.322151,0.34154 0.393509,0.2276 0.70564,0.54143 0.936653,0.9415 0.230878,0.40007 0.346253,0.86026 0.346253,1.38056 z m -1.024461,0 c 0.0066,-0.34468 -0.06011,-0.6488 -0.199904,-0.91223 -0.139919,-0.26344 -0.330109,-0.46833 -0.570836,-0.61468 -0.240593,-0.14635 -0.510588,-0.21959 -0.809856,-0.21959 -0.299134,0 -0.570706,0.0732 -0.814581,0.21959 -0.244005,0.14635 -0.435903,0.35124 -0.575692,0.61468 -0.139919,0.26343 -0.206597,0.56755 -0.200034,0.91223 -0.0066,0.33825 0.06011,0.63909 0.200034,0.90252 0.139789,0.26344 0.331687,0.46991 0.575692,0.61954 0.243875,0.14963 0.515447,0.22445 0.814581,0.22445 0.299268,0 0.569263,-0.0748 0.809856,-0.22445 0.240727,-0.14963 0.430917,-0.3561 0.570836,-0.61954 0.139789,-0.26343 0.206468,-0.56427 0.199904,-0.90252 z"
         style="fill:#0278a3;fill-opacity:1;fill-rule:nonzero;stroke:none;stroke-width:0.131257"
         id="path134"
         inkscape:connector-curvature="0" />
      <path
         d="m 15.053278,15.317185 c 1.971479,0 2.81008,1.30824 2.81008,2.36092 0,1.31414 -0.857239,2.36079 -2.808636,2.36079 h -1.997994 l 0.0021,-4.72171 z"
         style="fill:#a3e0e5;fill-opacity:1;fill-rule:evenodd;stroke:none;stroke-width:0.131257"
         id="path136"
         inkscape:connector-curvature="0" />
      <path
         d="m 9.0136727,24.170465 h 2.3608663 v -2.36091 H 9.0136727 v -10.6288 h 2.3608663 v 10.6288 l 4.094298,0.009 c 2.304873,0 4.19156,-1.82814 4.19156,-4.11464 0,-1.1082 -0.434592,-2.14999 -1.223971,-2.93307 -0.790035,-0.78321 -1.756087,-1.22397 -2.955907,-1.22397 l -2.630389,0.003 v -2.36407 h 2.598231 c 1.830247,0.0101 3.408875,0.7227 4.640852,1.94378 1.231454,1.22187 1.909264,2.84631 1.909264,4.57417 0,3.56573 -2.92388,6.4669 -6.517958,6.4669 z"
         style="fill:#0278a3;fill-opacity:1;fill-rule:evenodd;stroke:none;stroke-width:0.131257"
         id="path138"
         inkscape:connector-curvature="0" />
      <path
         d="m 9.0136727,22.399815 v 1.77065 h 1.7706043 c -0.8707723,-0.26435 -1.5441203,-0.93376 -1.7706043,-1.77065"
         style="fill:#a3e0e5;fill-opacity:1;fill-rule:nonzero;stroke:none;stroke-width:0.131257"
         id="path140"
         inkscape:connector-curvature="0" />
    </g>
  </g>
</svg>
