<?xml version="1.0" encoding="UTF-8" standalone="no"?>
<svg
   enable-background="new 0 0 96 96"
   height="96px"
   id="grid"
   version="1.1"
   viewBox="0 0 96 96"
   width="96px"
   xml:space="preserve"
   sodipodi:docname="menu.svg"
   inkscape:version="1.1.1 (3bf5ae0d25, 2021-09-20)"
   xmlns:inkscape="http://www.inkscape.org/namespaces/inkscape"
   xmlns:sodipodi="http://sodipodi.sourceforge.net/DTD/sodipodi-0.dtd"
   xmlns="http://www.w3.org/2000/svg"
   xmlns:svg="http://www.w3.org/2000/svg"><defs
     id="defs13" /><sodipodi:namedview
     id="namedview11"
     pagecolor="#ffffff"
     bordercolor="#666666"
     borderopacity="1.0"
     inkscape:pageshadow="2"
     inkscape:pageopacity="0.0"
     inkscape:pagecheckerboard="0"
     showgrid="false"
     inkscape:zoom="5.9791667"
     inkscape:cx="48.250871"
     inkscape:cy="48"
     inkscape:current-layer="grid" /><path
     style="fill:none;fill-opacity:1;stroke:#0278a3;stroke-width:8.117;stroke-linecap:round;stroke-linejoin:round;stroke-miterlimit:4;stroke-dasharray:none;stroke-opacity:1;paint-order:markers stroke fill"
     d="m 17.87937,36.841374 c -0.650363,-0.190215 -1.432609,-0.715601 -1.843831,-1.238387 -0.769454,-0.978199 -0.764983,-0.922257 -0.7614,-9.530346 0.0031,-7.469804 0.02356,-8.098112 0.28214,-8.667339 0.343762,-0.756734 1.032272,-1.461103 1.801766,-1.843261 0.550532,-0.273414 1.036657,-0.289506 8.746089,-0.289506 7.709431,0 8.19556,0.01609 8.746091,0.289506 0.769493,0.382158 1.458004,1.086527 1.801763,1.843261 0.258776,0.569651 0.278795,1.194363 0.278795,8.700582 0,8.974268 0.02552,8.731186 -1.027604,9.784319 -1.082514,1.082512 -0.758145,1.046042 -9.57017,1.076051 -4.900449,0.01668 -8.13287,-0.03107 -8.453639,-0.124874 z"
     id="path966" /><path
     style="fill:none;fill-opacity:1;stroke:#0278a3;stroke-width:8.117;stroke-linecap:round;stroke-linejoin:round;stroke-miterlimit:4;stroke-dasharray:none;stroke-opacity:1;paint-order:markers stroke fill"
     d="m 61.670512,36.841374 c -0.650363,-0.190215 -1.432609,-0.715601 -1.843831,-1.238387 -0.769453,-0.978199 -0.764983,-0.922257 -0.761402,-9.530346 0.0031,-7.469804 0.02355,-8.098112 0.282144,-8.667339 0.343759,-0.756734 1.032271,-1.461103 1.801766,-1.843261 0.550531,-0.273414 1.036656,-0.289506 8.746088,-0.289506 7.709432,0 8.195557,0.01609 8.74609,0.289506 0.769494,0.382158 1.458006,1.086527 1.801764,1.843261 0.258776,0.569651 0.278792,1.194363 0.278792,8.700582 0,8.974268 0.02552,8.731186 -1.027603,9.784319 -1.082512,1.082512 -0.758145,1.046042 -9.570172,1.076051 -4.900445,0.01668 -8.132867,-0.03107 -8.453636,-0.124874 z"
     id="path1005" /><path
     style="fill:none;fill-opacity:1;stroke:#0278a3;stroke-width:8.117;stroke-linecap:round;stroke-linejoin:round;stroke-miterlimit:4;stroke-dasharray:none;stroke-opacity:1;paint-order:markers stroke fill"
     d="M 61.670512,80.632518 C 61.020149,80.4423 60.237903,79.916915 59.826681,79.39413 c -0.769453,-0.9782 -0.764983,-0.922257 -0.761402,-9.530347 0.0031,-7.469805 0.02355,-8.098111 0.282144,-8.667338 0.343759,-0.756735 1.032271,-1.461102 1.801766,-1.84326 0.550531,-0.273415 1.036656,-0.289507 8.746088,-0.289507 7.709432,0 8.195557,0.01609 8.74609,0.289507 0.769494,0.382158 1.458006,1.086525 1.801764,1.84326 0.258776,0.569651 0.278792,1.194363 0.278792,8.700583 0,8.974266 0.02552,8.731185 -1.027603,9.784317 -1.082512,1.082514 -0.758145,1.046041 -9.570172,1.076052 -4.900445,0.01667 -8.132867,-0.03107 -8.453636,-0.124874 z"
     id="path1044" /><path
     style="fill:none;fill-opacity:1;stroke:#0278a3;stroke-width:8.117;stroke-linecap:round;stroke-linejoin:round;stroke-miterlimit:4;stroke-dasharray:none;stroke-opacity:1;paint-order:markers stroke fill"
     d="M 17.87937,80.632518 C 17.229007,80.4423 16.446761,79.916915 16.035539,79.39413 c -0.769454,-0.9782 -0.764983,-0.922257 -0.7614,-9.530347 0.0031,-7.469805 0.02356,-8.098111 0.28214,-8.667338 0.343762,-0.756735 1.032272,-1.461102 1.801766,-1.84326 0.550532,-0.273415 1.036657,-0.289507 8.746089,-0.289507 7.709431,0 8.19556,0.01609 8.746091,0.289507 0.769493,0.382158 1.458004,1.086525 1.801763,1.84326 0.258776,0.569651 0.278795,1.194363 0.278795,8.700583 0,8.974266 0.02552,8.731185 -1.027604,9.784317 -1.082514,1.082514 -0.758145,1.046041 -9.57017,1.076052 -4.900449,0.01667 -8.13287,-0.03107 -8.453639,-0.124874 z"
     id="path1083" /></svg>
