<?xml version="1.0" encoding="UTF-8" standalone="no"?>
<svg
   enable-background="new 0 0 96 96"
   height="93.782127"
   id="zoom_in"
   version="1.1"
   viewBox="0 0 93.782463 93.782128"
   width="93.782463"
   xml:space="preserve"
   sodipodi:docname="search.svg"
   inkscape:version="1.1.1 (1:1.1+202109281949+c3084ef5ed)"
   xmlns:inkscape="http://www.inkscape.org/namespaces/inkscape"
   xmlns:sodipodi="http://sodipodi.sourceforge.net/DTD/sodipodi-0.dtd"
   xmlns="http://www.w3.org/2000/svg"
   xmlns:svg="http://www.w3.org/2000/svg"><defs
     id="defs9" /><sodipodi:namedview
     id="namedview7"
     pagecolor="#505050"
     bordercolor="#ffffff"
     borderopacity="1"
     inkscape:pageshadow="0"
     inkscape:pageopacity="0"
     inkscape:pagecheckerboard="1"
     showgrid="false"
     fit-margin-top="0"
     fit-margin-left="0"
     fit-margin-right="0"
     fit-margin-bottom="0"
     inkscape:zoom="5.7083333"
     inkscape:cx="37.927008"
     inkscape:cy="40.467154"
     inkscape:window-width="1920"
     inkscape:window-height="1052"
     inkscape:window-x="1366"
     inkscape:window-y="0"
     inkscape:window-maximized="1"
     inkscape:current-layer="path2" /><g
     id="path2"
     transform="translate(-6.201e-4,-6.736e-4)"><path
       id="path3367"
       style="color:#000000;fill:#002330;stroke-width:5.8;-inkscape-stroke:none"
       d="m 47.800781,6.3046875 c -21.449299,0 -38.9003904,17.4510915 -38.9003904,38.9003905 0,21.449299 17.4510904,38.900391 38.9003904,38.900391 8.229374,0 15.804652,-2.675675 22.09375,-7.046875 l 21.027344,21.02539 c 2.670447,2.670446 7.087365,2.670446 9.757815,0 2.67088,-2.670885 2.67088,-7.08888 0,-9.759765 L 79.654297,67.298828 c 4.371374,-6.288714 7.046875,-13.864376 7.046875,-22.09375 0,-21.4493 -17.451092,-38.9003905 -38.900391,-38.9003905 z m 0,13.8007815 c 13.896715,0 25.09961,11.202893 25.09961,25.099609 0,13.896715 -11.202895,25.09961 -25.09961,25.09961 -13.896716,0 -25.099609,-11.202895 -25.099609,-25.09961 0,-13.896716 11.202893,-25.099609 25.099609,-25.099609 z"
       transform="translate(-8.8997705,-6.3040139)" /></g></svg>
