<?xml version="1.0" encoding="UTF-8" standalone="no"?>
<svg
   enable-background="new 0 0 96 96"
   height="93.782127"
   id="zoom_in"
   version="1.1"
   viewBox="0 0 93.782463 93.782128"
   width="93.782463"
   xml:space="preserve"
   sodipodi:docname="search-blue.svg"
   inkscape:version="1.1.1 (3bf5ae0d25, 2021-09-20)"
   xmlns:inkscape="http://www.inkscape.org/namespaces/inkscape"
   xmlns:sodipodi="http://sodipodi.sourceforge.net/DTD/sodipodi-0.dtd"
   xmlns="http://www.w3.org/2000/svg"
   xmlns:svg="http://www.w3.org/2000/svg"><defs
     id="defs9" /><sodipodi:namedview
     id="namedview7"
     pagecolor="#505050"
     bordercolor="#ffffff"
     borderopacity="1"
     inkscape:pageshadow="0"
     inkscape:pageopacity="0"
     inkscape:pagecheckerboard="1"
     showgrid="false"
     fit-margin-top="0"
     fit-margin-left="0"
     fit-margin-right="0"
     fit-margin-bottom="0"
     inkscape:zoom="5.7083333"
     inkscape:cx="37.927008"
     inkscape:cy="40.467154"
     inkscape:window-width="1920"
     inkscape:window-height="1052"
     inkscape:window-x="1366"
     inkscape:window-y="0"
     inkscape:window-maximized="1"
     inkscape:current-layer="path2" /><g
     id="path2"
     transform="translate(-6.201e-4,-6.736e-4)"><path
       id="path3367"
       style="color:#000000;fill:#0278a3;fill-opacity:1;stroke-width:4.77094;-inkscape-stroke:none"
       d="m 40.318777,8.3202727 c -17.643679,0 -31.9985287,14.3548493 -31.9985287,31.9985283 0,17.64368 14.3548487,31.99853 31.9985287,31.99853 6.769286,0 13.000528,-2.200947 18.173789,-5.796591 l 17.296589,17.294982 c 2.196646,2.196645 5.829897,2.196645 8.026545,0 2.197002,-2.197006 2.197002,-5.831143 0,-8.028149 L 66.520716,58.492591 c 3.595787,-5.172946 5.79659,-11.404504 5.79659,-18.17379 0,-17.64368 -14.35485,-31.9985283 -31.998529,-31.9985283 z m 0,11.3521923 c 11.431105,0 20.646337,9.215231 20.646337,20.646336 0,11.431105 -9.215232,20.646338 -20.646337,20.646338 -11.431105,0 -20.646337,-9.215233 -20.646337,-20.646338 0,-11.431105 9.215232,-20.646336 20.646337,-20.646336 z" /></g></svg>
