<?xml version="1.0" encoding="UTF-8" standalone="no"?>
<!-- Created with Inkscape (http://www.inkscape.org/) -->

<svg
   version="1.1"
   id="svg2"
   xml:space="preserve"
   width="581.65027"
   height="350.59641"
   viewBox="0 0 581.65027 350.59641"
   sodipodi:docname="payu.svg"
   inkscape:version="1.1.1 (1:1.1+202109281949+c3084ef5ed)"
   xmlns:inkscape="http://www.inkscape.org/namespaces/inkscape"
   xmlns:sodipodi="http://sodipodi.sourceforge.net/DTD/sodipodi-0.dtd"
   xmlns="http://www.w3.org/2000/svg"
   xmlns:svg="http://www.w3.org/2000/svg"><defs
     id="defs6"><clipPath
       clipPathUnits="userSpaceOnUse"
       id="clipPath18"><path
         d="M 0,371.311 H 539.622 V 0 H 0 Z"
         id="path16" /></clipPath><pattern
       id="EMFhbasepattern"
       patternUnits="userSpaceOnUse"
       width="6"
       height="6"
       x="0"
       y="0" /></defs><sodipodi:namedview
     id="namedview4"
     pagecolor="#505050"
     bordercolor="#ffffff"
     borderopacity="1"
     inkscape:pageshadow="0"
     inkscape:pageopacity="0"
     inkscape:pagecheckerboard="1"
     showgrid="false"
     fit-margin-top="0"
     fit-margin-left="0"
     fit-margin-right="0"
     fit-margin-bottom="0"
     inkscape:zoom="1.5653772"
     inkscape:cx="291.623"
     inkscape:cy="210.17299"
     inkscape:window-width="1920"
     inkscape:window-height="1052"
     inkscape:window-x="1366"
     inkscape:window-y="0"
     inkscape:window-maximized="1"
     inkscape:current-layer="g8" /><g
     id="g8"
     inkscape:groupmode="layer"
     inkscape:label="InPost_logotype_2019_lift_claim_RGB"
     transform="matrix(1.3333333,0,0,-1.3333333,-55.266265,423.38759)"><path
       d="m 315.19673,222.67351 c -2.2279,28.34451 -26.00643,50.72755 -54.91404,50.72755 -24.72722,0 -45.95347,-16.06046 -52.80855,-39.484 -19.53084,-6.78163 -32.87987,-25.29033 -32.87987,-46.20442 0,-26.99798 21.96684,-48.96482 48.96481,-48.96482 h 79.56782 c 23.61941,0 42.84421,19.22481 42.84421,42.84421 0,19.27377 -12.66964,35.81777 -30.77438,41.08148 z m -28.63829,-45.40874 -12.2412,12.2412 c -1.7505,1.7505 -2.27687,4.38236 -1.32817,6.67146 0.94256,2.28298 3.1827,3.77641 5.65542,3.77641 h 5.25148 c -2.73591,10.52743 -12.23508,18.3618 -23.61328,18.3618 -3.41529,0 -6.71429,-0.6855 -9.8052,-2.03816 -3.10927,-1.34653 -6.70818,0.0653 -8.06083,3.15212 -1.35877,3.09702 0.0571,6.70818 3.1521,8.06083 4.64554,2.03204 9.60323,3.06642 14.71393,3.06642 18.15983,0 33.24099,-13.26335 36.17276,-30.60301 h 6.67145 c 2.47272,0 4.71286,-1.49343 5.65544,-3.77641 0.94869,-2.2891 0.42192,-4.92096 -1.32817,-6.67146 l -12.2412,-12.2412 c -1.19352,-1.19352 -2.76039,-1.79334 -4.32727,-1.79334 -1.56687,0 -3.13375,0.59982 -4.32726,1.79334 z m -73.44723,20.89574 12.2412,12.2412 c 2.39316,2.39316 6.26138,2.39316 8.65454,0 l 12.2412,-12.2412 c 1.75049,-1.75049 2.27686,-4.38236 1.32818,-6.67147 -0.94258,-2.2891 -3.18272,-3.7764 -5.65544,-3.7764 h -5.25148 c 2.73591,-10.53356 12.23509,-18.36181 23.61328,-18.36181 3.40306,0 6.69594,0.68552 9.78684,2.03204 3.09091,1.37102 6.70207,-0.0652 8.05472,-3.15822 1.35877,-3.09703 -0.0571,-6.70819 -3.15823,-8.05471 -4.63942,-2.03205 -9.58487,-3.06031 -14.68333,-3.06031 -18.15982,0 -33.24099,13.26334 -36.17275,30.60301 h -6.67146 c -2.47272,0 -4.71286,1.4873 -5.65543,3.7764 -0.9487,2.28911 -0.42192,4.92098 1.32816,6.67147 z"
       id="XMLID_348_"
       style="fill:#a7dce5;fill-opacity:1;stroke-width:6.1206" /></g></svg>
