<?xml version="1.0" encoding="UTF-8" standalone="no"?>
<!-- Created with Inkscape (http://www.inkscape.org/) -->

<svg
   width="16.002926"
   height="12.052677"
   viewBox="0 0 4.2341072 3.1889374"
   version="1.1"
   id="svg1963"
   inkscape:version="1.1.1 (3bf5ae0d25, 2021-09-20)"
   sodipodi:docname="list-add.svg"
   xmlns:inkscape="http://www.inkscape.org/namespaces/inkscape"
   xmlns:sodipodi="http://sodipodi.sourceforge.net/DTD/sodipodi-0.dtd"
   xmlns="http://www.w3.org/2000/svg"
   xmlns:svg="http://www.w3.org/2000/svg">
  <sodipodi:namedview
     id="namedview1965"
     pagecolor="#000000"
     bordercolor="#ffffff"
     borderopacity="1"
     inkscape:pageshadow="0"
     inkscape:pageopacity="0"
     inkscape:pagecheckerboard="false"
     inkscape:document-units="mm"
     showgrid="false"
     fit-margin-top="0"
     fit-margin-left="0"
     fit-margin-right="0"
     fit-margin-bottom="0"
     units="px"
     inkscape:zoom="59.523231"
     inkscape:cx="2.5788251"
     inkscape:cy="4.9056477"
     inkscape:window-width="1920"
     inkscape:window-height="1052"
     inkscape:window-x="1366"
     inkscape:window-y="0"
     inkscape:window-maximized="1"
     inkscape:current-layer="line276569" />
  <defs
     id="defs1960" />
  <g
     inkscape:label="Warstwa 1"
     inkscape:groupmode="layer"
     id="layer1"
     transform="translate(-103.10063,-236.2062)">
    <g
       id="g2048"
       transform="translate(0,0.54204167)"
       style="fill:#ffffff;fill-opacity:1">
      <g
         id="path276565" />
      <g
         id="line276567" />
      <g
         id="line276569">
        <path
           id="path1019"
           style="color:#000000;stroke-width:0.264583;stroke-linecap:round;-inkscape-stroke:none;paint-order:stroke fill markers"
           d="m 104.20619,236.38591 h -0.97327 m -5e-4,-0.132 a 0.1322915,0.1322915 0 0 0 -0.13086,0.13281 0.1322915,0.1322915 0 0 0 0.13086,0.13086 h 0.97461 a 0.1322915,0.1322915 0 0 0 0.13086,-0.13086 0.1322915,0.1322915 0 0 0 -0.13086,-0.13281 z m 0.48713,-0.36879 v 1.00155 m -8e-4,-1.13472 a 0.1322915,0.1322915 0 0 0 -0.13086,0.13282 v 1.00195 a 0.1322915,0.1322915 0 0 0 0.13086,0.13281 0.1322915,0.1322915 0 0 0 0.13281,-0.13281 v -1.00195 a 0.1322915,0.1322915 0 0 0 -0.13281,-0.13282 z m 2.06641,-0.0879 c -0.18305,0 -0.3314,0.12324 -0.39649,0.28711 h -0.16015 c -0.2416,0 -0.4375,0.20155 -0.4375,0.44922 v 2.00391 c 0,0.24767 0.1959,0.44922 0.4375,0.44922 h 1.66992 c 0.24157,0 0.43554,-0.20155 0.43554,-0.44922 v -2.00391 c 0,-0.24767 -0.19397,-0.44922 -0.43554,-0.44922 h -0.16016 c -0.065,-0.16388 -0.21343,-0.28711 -0.39648,-0.28711 z m 0,0.0391 h 0.55664 c 0.17294,0 0.31835,0.11433 0.37304,0.27344 l 0.006,0.0137 h 0.17774 c 0.21952,0 0.39648,0.18331 0.39648,0.41016 v 2.00391 c 0,0.22684 -0.17696,0.4082 -0.39648,0.4082 h -1.66992 c -0.21955,0 -0.39844,-0.18136 -0.39844,-0.4082 v -2.00391 c 0,-0.22685 0.17889,-0.41016 0.39844,-0.41016 h 0.17773 l 0.004,-0.0137 c 0.0548,-0.15913 0.20207,-0.27344 0.375,-0.27344 z m 0,0.24805 c -0.0878,0 -0.16016,0.0727 -0.16016,0.16211 0,0.0895 0.0723,0.16406 0.16016,0.16406 h 0.55664 c 0.0878,0 0.1582,-0.0746 0.1582,-0.16406 0,-0.0895 -0.0704,-0.16211 -0.1582,-0.16211 z m 0,0.0391 h 0.55664 c 0.0658,0 0.11914,0.0544 0.11914,0.12305 0,0.0686 -0.0534,0.12305 -0.11914,0.12305 h -0.55664 c -0.0658,0 -0.11914,-0.0544 -0.11914,-0.12305 0,-0.0686 0.0534,-0.12305 0.11914,-0.12305 z m -0.55664,0.2461 c -0.0878,0 -0.15821,0.0745 -0.15821,0.16406 v 2.00391 c 0,0.0894 0.0704,0.16211 0.15821,0.16211 h 1.66992 c 0.0878,0 0.1582,-0.0726 0.1582,-0.16211 v -2.00391 c 0,-0.0895 -0.0704,-0.16406 -0.1582,-0.16406 h -0.17774 l -0.006,0.0137 c -0.0548,0.15912 -0.2001,0.27344 -0.37304,0.27344 h -0.55664 c -0.17293,0 -0.32031,-0.11434 -0.375,-0.27344 l -0.004,-0.0137 z m 0,0.041 h 0.16406 c 0.066,0.1616 0.21114,0.28516 0.39258,0.28516 h 0.55664 c 0.18144,0 0.32648,-0.12357 0.39258,-0.28516 h 0.16406 c 0.0658,0 0.11914,0.0544 0.11914,0.12305 v 2.00391 c 0,0.0687 -0.0534,0.12304 -0.11914,0.12304 h -1.66992 c -0.0658,0 -0.11915,-0.0544 -0.11914,-0.12304 v -2.00391 c 0,-0.0687 0.0534,-0.12305 0.11914,-0.12305 z m 1.66908,-0.30711 h -0.16336 c -0.0573,-0.1667 -0.21143,-0.2863 -0.39308,-0.2863 h -0.55641 c -0.18164,0 -0.33569,0.1196 -0.39309,0.2863 h -0.16334 c -0.23057,0 -0.41733,0.19218 -0.41733,0.42944 v 2.00407 c 0,0.23726 0.18676,0.42944 0.41733,0.42944 h 1.66928 c 0.23055,0 0.41729,-0.19218 0.41729,-0.42944 v -2.00407 c 0,-0.23726 -0.18674,-0.42944 -0.41729,-0.42944 z m -1.11285,0 h 0.55641 c 0.0768,0 0.13905,0.0641 0.13905,0.14314 0,0.079 -0.0623,0.14316 -0.13905,0.14316 h -0.55641 c -0.0768,0 -0.13906,-0.0641 -0.13906,-0.14316 0,-0.079 0.0623,-0.14314 0.13906,-0.14314 z m 1.25195,2.43351 c 0,0.0791 -0.0623,0.14314 -0.13904,0.14314 h -1.66927 c -0.0768,0 -0.13904,-0.0641 -0.13904,-0.14314 v -2.00407 c 0,-0.0791 0.0623,-0.14315 0.13904,-0.14315 h 0.16334 c 0.0573,0.16669 0.21144,0.2863 0.39308,0.2863 h 0.5564 c 0.18165,0 0.33571,-0.11961 0.3931,-0.2863 h 0.16335 c 0.0768,0 0.13904,0.0641 0.13904,0.14315 z" />
      </g>
    </g>
  </g>
</svg>
